<svg version="1.1" xmlns="http://www.w3.org/2000/svg" viewBox="0 0 1231.6292996025722 686.8568852435938" width="1231.6292996025722" height="686.8568852435938">
  <!-- svg-source:excalidraw -->
  
  <defs>
    <style class="style-fonts">
      @font-face {
        font-family: "Virgil";
        src: url("https://excalidraw.com/Virgil.woff2");
      }
      @font-face {
        font-family: "Cascadia";
        src: url("https://excalidraw.com/Cascadia.woff2");
      }
      @font-face {
        font-family: "Assistant";
        src: url("https://excalidraw.com/Assistant-Regular.woff2");
      }
    </style>
    
  </defs>
  <rect x="0" y="0" width="1231.6292996025722" height="686.8568852435938" fill="#ffffff"></rect><g stroke-linecap="round" transform="translate(9.999999999999886 390.41179104502487) rotate(0 143.22254709928444 143.22254709928447)"><path d="M85.53 12.34 C97.44 4.76, 115.28 2.86, 129.87 1.47 C144.47 0.08, 158.78 0.84, 173.08 3.99 C187.37 7.15, 202.66 13.03, 215.64 20.39 C228.61 27.74, 241.08 37.4, 250.94 48.12 C260.79 58.83, 269.12 71.25, 274.76 84.69 C280.4 98.14, 283.26 114, 284.77 128.82 C286.28 143.63, 286.75 159.09, 283.83 173.59 C280.92 188.1, 274.92 203.21, 267.28 215.85 C259.64 228.49, 248.98 239.66, 238 249.42 C227.02 259.19, 214.69 268.26, 201.4 274.45 C188.11 280.64, 172.91 284.97, 158.26 286.55 C143.62 288.13, 128.08 287.3, 113.53 283.95 C98.98 280.6, 83.91 274.07, 70.98 266.47 C58.04 258.88, 45.76 249.27, 35.94 238.37 C26.11 227.47, 18.02 214.5, 12.01 201.06 C6 187.62, 1.18 172.26, -0.13 157.71 C-1.44 143.17, 0.72 128.16, 4.15 113.78 C7.58 99.41, 13.06 84.4, 20.45 71.45 C27.83 58.51, 36.22 46.46, 48.48 36.09 C60.75 25.72, 84.77 13.88, 94.03 9.25 C103.29 4.62, 103.18 6.12, 104.06 8.33 M163.15 2.43 C177.11 2.05, 190.69 8.1, 203.55 14.06 C216.42 20.02, 229.63 28.21, 240.31 38.21 C251 48.22, 260.58 60.8, 267.65 74.1 C274.72 87.4, 279.96 103.31, 282.74 118.01 C285.52 132.72, 286.26 148.06, 284.32 162.33 C282.38 176.6, 277.46 190.39, 271.1 203.65 C264.73 216.9, 255.98 230.75, 246.13 241.85 C236.27 252.95, 224.85 263.29, 211.95 270.25 C199.04 277.2, 183.35 280.96, 168.7 283.6 C154.05 286.24, 138.48 288, 124.06 286.07 C109.64 284.15, 95.44 278.76, 82.19 272.06 C68.93 265.37, 55.44 256.01, 44.56 245.9 C33.68 235.79, 24.14 224, 16.91 211.41 C9.68 198.82, 3.57 184.96, 1.18 170.37 C-1.21 155.77, 0.65 138.49, 2.57 123.83 C4.49 109.18, 6.8 95.81, 12.69 82.45 C18.57 69.09, 27.71 54.57, 37.86 43.69 C48.02 32.8, 60.23 24.11, 73.6 17.12 C86.97 10.14, 103.38 4.21, 118.1 1.78 C132.83 -0.65, 154.72 2.19, 161.94 2.54 C169.16 2.89, 161.7 1.83, 161.42 3.88" stroke="none" stroke-width="0" fill="#e9ecef"></path><path d="M103.72 4.89 C116.46 -1.06, 134.18 0.29, 149.02 0.85 C163.85 1.41, 178.85 3.19, 192.75 8.25 C206.64 13.3, 220.8 22.04, 232.37 31.17 C243.94 40.31, 254.11 50.96, 262.17 63.04 C270.23 75.12, 276.7 89.42, 280.74 103.64 C284.78 117.87, 287.11 133.4, 286.41 148.38 C285.7 163.35, 281.82 179.65, 276.53 193.48 C271.25 207.31, 263.83 219.96, 254.7 231.35 C245.56 242.74, 233.74 253.48, 221.72 261.83 C209.71 270.18, 196.67 277.33, 182.61 281.47 C168.54 285.61, 152.16 287.45, 137.31 286.67 C122.46 285.88, 107.18 282.05, 93.52 276.76 C79.85 271.47, 66.91 263.89, 55.31 254.92 C43.7 245.96, 32.39 235.12, 23.89 222.96 C15.39 210.8, 8.24 196.31, 4.32 181.97 C0.4 167.63, -0.49 151.73, 0.36 136.92 C1.21 122.11, 4.21 106.83, 9.42 93.12 C14.63 79.41, 22.69 66.03, 31.62 54.66 C40.55 43.29, 49.05 33.61, 63.01 24.9 C76.96 16.19, 104.81 5.9, 115.35 2.41 C125.88 -1.08, 125.89 1.53, 126.21 3.94 M167.42 1.49 C181.14 1.46, 195.4 8.62, 208.64 15.48 C221.88 22.35, 236.51 31.91, 246.87 42.67 C257.24 53.43, 264.54 66.94, 270.81 80.06 C277.09 93.18, 282.16 106.71, 284.53 121.4 C286.89 136.1, 287.5 153.31, 285.03 168.23 C282.56 183.16, 276.6 198, 269.71 210.95 C262.81 223.91, 254.3 235.83, 243.65 245.96 C232.99 256.1, 218.9 265.26, 205.78 271.75 C192.67 278.25, 179.28 282.7, 164.97 284.93 C150.66 287.17, 134.9 287.49, 119.94 285.16 C104.98 282.83, 88.2 277.76, 75.2 270.97 C62.2 264.18, 51.99 255.14, 41.93 244.43 C31.87 233.72, 21.8 220.37, 14.86 206.73 C7.92 193.08, 2.41 177.27, 0.28 162.56 C-1.85 147.86, -0.71 133.06, 2.06 118.51 C4.83 103.97, 9.8 88.21, 16.88 75.29 C23.95 62.37, 33.94 51.14, 44.5 41 C55.07 30.86, 67.25 21.04, 80.27 14.45 C93.29 7.86, 107.88 3.65, 122.64 1.45 C137.41 -0.74, 161.34 0.6, 168.87 1.31 C176.4 2.01, 168.55 3.18, 167.82 5.68" stroke="transparent" stroke-width="4" fill="none"></path></g><g stroke-linecap="round" transform="translate(47.72922699695266 10) rotate(0 84.50000000000006 60)"><path d="M30 0 C55.33 -1.23, 79.05 -0.65, 139 0 C161.92 -1.9, 170.57 11.82, 169 30 C172.56 42.13, 172.57 59.94, 169 90 C168.79 110.84, 162.42 122.71, 139 120 C115.74 123.41, 87.12 121.97, 30 120 C6.8 116.55, -0.39 112.38, 0 90 C-2.39 69.95, 1.54 55.23, 0 30 C2.66 12.95, 12.67 2.8, 30 0" stroke="none" stroke-width="0" fill="#e9ecef"></path><path d="M30 0 C68.95 1.11, 111.31 -2.24, 139 0 M30 0 C57.79 -1.48, 86.41 -0.51, 139 0 M139 0 C158.46 -1.62, 168.22 8.14, 169 30 M139 0 C159.18 -1.62, 166.75 11.07, 169 30 M169 30 C167.35 44.33, 169.23 55.62, 169 90 M169 30 C169.99 49.42, 168.93 70.46, 169 90 M169 90 C167.02 110.18, 159.49 119.1, 139 120 M169 90 C170.13 109.28, 160.67 120.67, 139 120 M139 120 C114.68 120.81, 91.97 119.28, 30 120 M139 120 C105.53 120.85, 71.63 120.06, 30 120 M30 120 C8.57 121.25, -0.99 108.74, 0 90 M30 120 C10.03 119.29, -2.22 111.04, 0 90 M0 90 C0.89 69.72, -0.76 49.37, 0 30 M0 90 C0.57 65.72, 0.74 43.96, 0 30 M0 30 C1.86 10.23, 10.43 -1.57, 30 0 M0 30 C-1.58 9.94, 9.57 0.49, 30 0" stroke="#1e1e1e" stroke-width="2" fill="none"></path></g><g stroke-linecap="round" transform="translate(57.72922699695266 20) rotate(0 84.50000000000006 60)"><path d="M30 0 C70.05 -0.8, 111.26 2.62, 139 0 C157.1 1.57, 170.82 8.27, 169 30 C165.01 51.92, 167.7 66.62, 169 90 C169.84 113.42, 161.71 117.9, 139 120 C101.41 122.5, 59.4 118.48, 30 120 C6.55 119.61, 2.38 109.76, 0 90 C-2.92 71.75, -0.05 52.3, 0 30 C2.95 12.67, 12.8 -0.19, 30 0" stroke="none" stroke-width="0" fill="#e9ecef"></path><path d="M30 0 C60.92 1.82, 86.85 -0.26, 139 0 M30 0 C61.35 0.59, 94.35 0.02, 139 0 M139 0 C157.38 -0.78, 167.14 10.16, 169 30 M139 0 C157.38 -2.25, 170.07 8.03, 169 30 M169 30 C169.94 44.32, 168.36 57.98, 169 90 M169 30 C167.92 48.38, 168.91 66.01, 169 90 M169 90 C169.18 110.49, 158.1 120.98, 139 120 M169 90 C168.28 111.67, 159.67 118.07, 139 120 M139 120 C97.02 119.61, 53.06 119.71, 30 120 M139 120 C102.4 119.61, 65.17 119.3, 30 120 M30 120 C11.25 119.01, -1.26 110.03, 0 90 M30 120 C9.29 117.78, 1.04 110.89, 0 90 M0 90 C-0.32 71.9, -0.35 57.29, 0 30 M0 90 C-1.24 72.94, 0.49 55.37, 0 30 M0 30 C0.23 10.43, 8.43 -1.38, 30 0 M0 30 C-0.06 9.57, 10.49 -1.67, 30 0" stroke="#1e1e1e" stroke-width="2" fill="none"></path></g><g stroke-linecap="round" transform="translate(67.72922699695266 30) rotate(0 84.50000000000006 60)"><path d="M30 0 C65.79 0.31, 105.48 -1.59, 139 0 C160.57 1.82, 167.27 10.25, 169 30 C173.54 42.09, 169.83 55.59, 169 90 C172.42 112.71, 156.9 122.6, 139 120 C104.72 123.16, 65.6 118.18, 30 120 C9.61 122.38, -0.24 111.31, 0 90 C2.53 69.82, 3.26 51.77, 0 30 C2.67 12.8, 9.81 -1.61, 30 0" stroke="none" stroke-width="0" fill="#e9ecef"></path><path d="M30 0 C69.31 -2.59, 105.33 -1.02, 139 0 M30 0 C70.95 1.03, 111.04 -0.06, 139 0 M139 0 C158.22 -1.86, 169.16 8.59, 169 30 M139 0 C156.75 1.07, 167.03 8.33, 169 30 M169 30 C169.3 42.64, 169.32 55.67, 169 90 M169 30 C169.44 43.86, 168.57 57.1, 169 90 M169 90 C169.49 109.1, 159.98 119.37, 139 120 M169 90 C170.67 110.67, 157.07 122.05, 139 120 M139 120 C102.81 119.17, 66.69 120.93, 30 120 M139 120 C95.79 118.87, 52.68 120.45, 30 120 M30 120 C9.01 118.74, 0.03 109.38, 0 90 M30 120 C7.78 121.04, 0.89 109.72, 0 90 M0 90 C-1.08 68.46, 1.59 46.85, 0 30 M0 90 C0.39 68.35, 0.6 44.92, 0 30 M0 30 C0.43 8.43, 8.62 -0.05, 30 0 M0 30 C-0.43 10.49, 8.33 1.67, 30 0" stroke="#1e1e1e" stroke-width="2" fill="none"></path></g><g stroke-linecap="round" transform="translate(77.72922699695266 40.00000000000006) rotate(0 84.50000000000006 60)"><path d="M30 0 C64.4 3.19, 96.9 1.84, 139 0 C160.82 -1.73, 169.25 6.63, 169 30 C167.82 53.6, 168.94 81.04, 169 90 C171.71 107.9, 161.6 120.79, 139 120 C98.47 117.24, 51.42 120.06, 30 120 C12.38 119.76, 1.31 111.55, 0 90 C1.15 78, 3.69 63.34, 0 30 C2.8 9.81, 8.39 -1.45, 30 0" stroke="none" stroke-width="0" fill="#e9ecef"></path><path d="M30 0 C55.05 -1.52, 83.36 0.79, 139 0 M30 0 C60.07 -0.59, 88.77 -0.72, 139 0 M139 0 C157.14 0.16, 167.59 8.04, 169 30 M139 0 C160.07 -1.97, 167.33 7.99, 169 30 M169 30 C169.33 45.04, 169.61 57.2, 169 90 M169 30 C168.98 52.63, 168.71 77.5, 169 90 M169 90 C168.1 110.98, 158.37 121.46, 139 120 M169 90 C169.67 108.07, 161.05 120.74, 139 120 M139 120 C109.54 120.16, 82.9 121.87, 30 120 M139 120 C105.18 118.84, 73.9 119.06, 30 120 M30 120 C8.74 120.03, -0.62 108.07, 0 90 M30 120 C11.04 120.89, -0.28 111.36, 0 90 M0 90 C-0.01 71.38, -0.08 50.63, 0 30 M0 90 C1.42 69.67, 0.58 47.69, 0 30 M0 30 C-1.57 8.62, 9.95 -0.37, 30 0 M0 30 C0.49 8.33, 11.67 0.76, 30 0" stroke="#1e1e1e" stroke-width="2" fill="none"></path></g><g transform="translate(110.63927643542922 87.50000000000006) rotate(0 51.58995056152338 12.5)"><text x="51.58995056152344" y="17.52" font-family="Virgil, Segoe UI Emoji" font-size="20px" fill="#1e1e1e" text-anchor="middle" style="white-space: pre;" direction="ltr" dominant-baseline="alphabetic">Documents</text></g><g stroke-linecap="round" transform="translate(348.72922699695255 36) rotate(0 46.5 60)"><path d="M23.25 0 C34.66 0.89, 51.7 -2.41, 69.75 0 C85.5 -3.37, 96.49 4.77, 93 23.25 C93.73 55.86, 95.6 79.53, 93 96.75 C95.6 113.04, 88.34 122.98, 69.75 120 C51.3 118.87, 42.12 119.01, 23.25 120 C9.06 121.55, -2 109.79, 0 96.75 C2.8 73.43, 2.64 44.57, 0 23.25 C-1.61 6.3, 7.09 -0.35, 23.25 0" stroke="none" stroke-width="0" fill="#ffec99"></path><path d="M23.25 0 C39.92 1.66, 56.3 -1.18, 69.75 0 M23.25 0 C37.77 -0.27, 52.98 0.2, 69.75 0 M69.75 0 C83.84 -1.96, 93.93 6.04, 93 23.25 M69.75 0 C83.58 -2.01, 91.6 9.43, 93 23.25 M93 23.25 C93.13 46.26, 94.83 71.01, 93 96.75 M93 23.25 C93.35 44.68, 92.81 66.11, 93 96.75 M93 96.75 C92.37 113.71, 85.84 118.32, 69.75 120 M93 96.75 C95.05 112.99, 84.34 120.52, 69.75 120 M69.75 120 C56.4 121.89, 41.71 119.72, 23.25 120 M69.75 120 C58.31 119.17, 45 119.68, 23.25 120 M23.25 120 C7.13 118.07, 0.91 113.02, 0 96.75 M23.25 120 C7.47 121.36, 0.94 112.29, 0 96.75 M0 96.75 C-0.07 79.29, 1.09 57.21, 0 23.25 M0 96.75 C-0.58 69.63, -1.48 41.4, 0 23.25 M0 23.25 C-0.05 7.38, 8.18 -1.46, 23.25 0 M0 23.25 C1.67 8.51, 8.11 -0.37, 23.25 0" stroke="#1e1e1e" stroke-width="2" fill="none"></path></g><g transform="translate(358.8592623973432 83.50000000000006) rotate(0 36.369964599609375 12.5)"><text x="36.369964599609375" y="17.52" font-family="Virgil, Segoe UI Emoji" font-size="20px" fill="#1e1e1e" text-anchor="middle" style="white-space: pre;" direction="ltr" dominant-baseline="alphabetic">Chunker</text></g><g stroke-linecap="round"><g transform="translate(261.72922699695255 97.41803897996732) rotate(0 34.5 0.15216108519237537)"><path d="M0.88 -0.32 C12.32 -0.2, 56.76 0.61, 68.18 0.66 M-0.12 -1.53 C11.75 -1.78, 58.98 -1.72, 70.45 -1.28" stroke="#1e1e1e" stroke-width="2" fill="none"></path></g><g transform="translate(261.72922699695255 97.41803897996732) rotate(0 34.5 0.15216108519237537)"><path d="M46.82 6.89 C52.38 3.24, 59.59 3.08, 70.45 -1.28 M46.82 6.89 C52.42 4.83, 59.1 1.54, 70.45 -1.28" stroke="#1e1e1e" stroke-width="2" fill="none"></path></g><g transform="translate(261.72922699695255 97.41803897996732) rotate(0 34.5 0.15216108519237537)"><path d="M47.11 -10.21 C52.58 -9.46, 59.71 -5.22, 70.45 -1.28 M47.11 -10.21 C52.49 -7.6, 59.09 -6.22, 70.45 -1.28" stroke="#1e1e1e" stroke-width="2" fill="none"></path></g></g><mask></mask><g stroke-linecap="round"><g transform="translate(254.4285770709812 510.6028691940204) rotate(0 44.976067446567754 -48.87304697051735)"><path d="M-0.32 -0.82 C14.74 -17.21, 75.32 -81.09, 90.31 -97.41 M1.71 1.36 C16.66 -15.48, 75.05 -82.81, 89.55 -99.35" stroke="#1e1e1e" stroke-width="2" fill="none"></path></g><g transform="translate(254.4285770709812 510.6028691940204) rotate(0 44.976067446567754 -48.87304697051735)"><path d="M80.56 -76.02 C81.66 -82.26, 86.24 -90.25, 89.55 -99.35 M80.56 -76.02 C82.7 -81.76, 83.61 -85.7, 89.55 -99.35" stroke="#1e1e1e" stroke-width="2" fill="none"></path></g><g transform="translate(254.4285770709812 510.6028691940204) rotate(0 44.976067446567754 -48.87304697051735)"><path d="M67.67 -87.26 C72.63 -90.16, 81 -94.84, 89.55 -99.35 M67.67 -87.26 C72.59 -90.41, 76.33 -91.89, 89.55 -99.35" stroke="#1e1e1e" stroke-width="2" fill="none"></path></g></g><mask></mask><g stroke-linecap="round"><g transform="translate(465.18082295497743 295.9356171731231) rotate(0 31.627002888624588 -59.89474827408034)"><path d="M-0.82 0.36 C9.63 -19.61, 53.07 -100.01, 63.59 -120.11 M0.94 -0.5 C11.19 -20.26, 52.2 -98.96, 62.82 -118.74" stroke="#1e1e1e" stroke-width="2" fill="none"></path></g><g transform="translate(465.18082295497743 295.9356171731231) rotate(0 31.627002888624588 -59.89474827408034)"><path d="M59.42 -93.97 C61.35 -102.62, 61.49 -114.04, 62.82 -118.74 M59.42 -93.97 C59.83 -101.41, 61.89 -107.75, 62.82 -118.74" stroke="#1e1e1e" stroke-width="2" fill="none"></path></g><g transform="translate(465.18082295497743 295.9356171731231) rotate(0 31.627002888624588 -59.89474827408034)"><path d="M44.29 -101.96 C51.84 -107.53, 57.62 -115.97, 62.82 -118.74 M44.29 -101.96 C48.58 -107.33, 54.58 -111.58, 62.82 -118.74" stroke="#1e1e1e" stroke-width="2" fill="none"></path></g></g><mask></mask><g stroke-linecap="round"><g transform="translate(475.52063701083216 394.88845613654587) rotate(0 138.97210945289032 1.4489362154233731)"><path d="M-0.97 -0.47 C45.11 0.08, 230.49 2.63, 276.83 2.99 M0.72 -1.76 C47.13 -0.97, 232.49 3.88, 278.96 4.58" stroke="#1e1e1e" stroke-width="2" fill="none"></path></g><g transform="translate(475.52063701083216 394.88845613654587) rotate(0 138.97210945289032 1.4489362154233731)"><path d="M255.29 12.63 C262.29 8.32, 271.01 6.13, 278.96 4.58 M255.29 12.63 C259.31 10.33, 264.21 10.31, 278.96 4.58" stroke="#1e1e1e" stroke-width="2" fill="none"></path></g><g transform="translate(475.52063701083216 394.88845613654587) rotate(0 138.97210945289032 1.4489362154233731)"><path d="M255.65 -4.47 C262.49 -3.17, 271.08 0.25, 278.96 4.58 M255.65 -4.47 C259.68 -3.31, 264.51 0.12, 278.96 4.58" stroke="#1e1e1e" stroke-width="2" fill="none"></path></g></g><mask></mask><g stroke-linecap="round"><g transform="translate(465.16355030839463 100.28668560285155) rotate(0 34.500000000000114 5.020807708076546)"><path d="M-0.47 -1.11 C11.1 0.58, 57.71 7.25, 69.1 9.2 M1.48 0.92 C12.93 2.83, 56.76 9.02, 68.2 10.29" stroke="#1e1e1e" stroke-width="2" fill="none"></path></g><g transform="translate(465.16355030839463 100.28668560285155) rotate(0 34.500000000000114 5.020807708076546)"><path d="M43.81 15.77 C48.66 14.53, 55.77 10.92, 68.2 10.29 M43.81 15.77 C51.43 13.44, 61.49 12.49, 68.2 10.29" stroke="#1e1e1e" stroke-width="2" fill="none"></path></g><g transform="translate(465.16355030839463 100.28668560285155) rotate(0 34.500000000000114 5.020807708076546)"><path d="M45.99 -1.19 C50.11 2.2, 56.63 3.22, 68.2 10.29 M45.99 -1.19 C52.71 2.34, 62.02 7.26, 68.2 10.29" stroke="#1e1e1e" stroke-width="2" fill="none"></path></g></g><mask></mask><g stroke-linecap="round"><g transform="translate(693.0354866824632 329.37578363264106) rotate(0 34.500000000000114 5.020807708076546)"><path d="M-1.11 0.1 C10.41 1.65, 56.38 7.38, 68.16 8.87 M0.5 -0.9 C12.49 0.8, 58.99 8.01, 70.42 9.79" stroke="#1e1e1e" stroke-width="2" fill="none"></path></g><g transform="translate(693.0354866824632 329.37578363264106) rotate(0 34.500000000000114 5.020807708076546)"><path d="M45.9 14.64 C51.45 12.4, 54.71 13.67, 70.42 9.79 M45.9 14.64 C50.59 14.54, 56.79 12.72, 70.42 9.79" stroke="#1e1e1e" stroke-width="2" fill="none"></path></g><g transform="translate(693.0354866824632 329.37578363264106) rotate(0 34.500000000000114 5.020807708076546)"><path d="M48.52 -2.26 C53.44 -0.82, 56.12 4.16, 70.42 9.79 M48.52 -2.26 C52.52 1.25, 58.16 3.04, 70.42 9.79" stroke="#1e1e1e" stroke-width="2" fill="none"></path></g></g><mask></mask><g stroke-linecap="round"><g transform="translate(888.3436822138676 390.6396206913397) rotate(0 40.36327757680067 -0.6671448141258907)"><path d="M0.1 -0.84 C13.43 -0.79, 66.29 -0.55, 79.55 -0.78 M-1.31 1.33 C12.42 1.12, 67.75 -2.16, 81.65 -2.6" stroke="#1e1e1e" stroke-width="2" fill="none"></path></g><g transform="translate(888.3436822138676 390.6396206913397) rotate(0 40.36327757680067 -0.6671448141258907)"><path d="M58.58 7.04 C63.28 2.55, 71.63 0.28, 81.65 -2.6 M58.58 7.04 C64.64 5.32, 69.1 3.13, 81.65 -2.6" stroke="#1e1e1e" stroke-width="2" fill="none"></path></g><g transform="translate(888.3436822138676 390.6396206913397) rotate(0 40.36327757680067 -0.6671448141258907)"><path d="M57.78 -10.04 C62.53 -10.08, 71.09 -7.89, 81.65 -2.6 M57.78 -10.04 C63.88 -7.87, 68.52 -6.17, 81.65 -2.6" stroke="#1e1e1e" stroke-width="2" fill="none"></path></g></g><mask></mask><g stroke-linecap="round"><g transform="translate(617.8361629492213 186.06996252335802) rotate(0 -0.6891071880500022 23.734652286560504)"><path d="M-0.54 0.26 C-0.85 8.17, -1.63 39.26, -1.85 47.07 M0.19 -0.09 C0.03 7.91, -0.69 39.62, -0.86 47.56" stroke="#1e1e1e" stroke-width="2" fill="none"></path></g><g transform="translate(617.8361629492213 186.06996252335802) rotate(0 -0.6891071880500022 23.734652286560504)"><path d="M-8.49 25.08 C-5.75 31.19, -4.59 38.09, -0.86 47.56 M-8.49 25.08 C-6.61 30.62, -4.71 35.45, -0.86 47.56" stroke="#1e1e1e" stroke-width="2" fill="none"></path></g><g transform="translate(617.8361629492213 186.06996252335802) rotate(0 -0.6891071880500022 23.734652286560504)"><path d="M7.75 25.43 C5.49 31.35, 1.64 38.15, -0.86 47.56 M7.75 25.43 C5.74 30.91, 3.76 35.66, -0.86 47.56" stroke="#1e1e1e" stroke-width="2" fill="none"></path></g></g><mask></mask><g stroke-linecap="round"><g transform="translate(1033.4137010585634 448.2851320118474) rotate(0 -380.3630174128291 54.08227773890616)"><path d="M-1.03 -0.87 C-19.17 15.07, 16.43 77.98, -110.04 96.22 C-236.51 114.46, -651.39 106.51, -759.85 108.57 M0.64 1.29 C-17.05 17.32, 18.92 79.85, -107.88 97.37 C-234.68 114.9, -651.37 104.35, -760.15 106.43" stroke="#1e1e1e" stroke-width="2" fill="none"></path></g><g transform="translate(1033.4137010585634 448.2851320118474) rotate(0 -380.3630174128291 54.08227773890616)"><path d="M-736.64 97.95 C-742.8 97.71, -747.32 102.64, -760.15 106.43 M-736.64 97.95 C-744.4 100.11, -751.39 103.06, -760.15 106.43" stroke="#1e1e1e" stroke-width="2" fill="none"></path></g><g transform="translate(1033.4137010585634 448.2851320118474) rotate(0 -380.3630174128291 54.08227773890616)"><path d="M-736.68 115.05 C-742.92 111.36, -747.43 112.83, -760.15 106.43 M-736.68 115.05 C-744.42 111.51, -751.39 108.75, -760.15 106.43" stroke="#1e1e1e" stroke-width="2" fill="none"></path></g></g><mask></mask><g stroke-linecap="round"><g transform="translate(549.2030960512122 42.85867657023692) rotate(0 67.7456931461171 60.99447582762019)" fill-rule="evenodd"><path d="M1.11 0.94 C1.26 19.86, 0.16 90.92, 0.15 111.13 C0.14 131.34, 0.05 119.48, 1.02 122.22 C1.99 124.96, 0.56 125.93, 5.97 127.57 C11.38 129.21, 22.12 130.83, 33.48 132.05 C44.84 133.27, 61.44 134.72, 74.11 134.89 C86.78 135.06, 99.42 134.17, 109.49 133.05 C119.56 131.92, 130.21 130.01, 134.54 128.14 C138.86 126.26, 135.58 124.9, 135.43 121.8 C135.28 118.7, 133.69 128.39, 133.64 109.54 C133.6 90.7, 134.95 27.37, 135.18 8.75 C135.41 -9.88, 136.3 0.08, 135.04 -2.22 C133.77 -4.51, 132.12 -3.83, 127.58 -5.02 C123.05 -6.21, 118.22 -8.25, 107.84 -9.34 C97.47 -10.43, 77.62 -11.25, 65.33 -11.57 C53.05 -11.9, 43.89 -12.65, 34.15 -11.3 C24.4 -9.95, 12.77 -5.36, 6.87 -3.46 C0.97 -1.56, 0.28 -0.87, -1.25 0.1 C-2.78 1.08, -2.17 1.99, -2.29 2.37" stroke="none" stroke-width="0" fill="#a5d8ff" fill-rule="evenodd"></path><path d="M-0.87 -1.05 C-1.01 17.55, -0.5 90.04, -0.28 110.56 C-0.07 131.09, -0.86 119.26, 0.42 122.11 C1.7 124.96, 2.41 125.81, 7.4 127.67 C12.38 129.53, 19.66 132.3, 30.34 133.26 C41.02 134.22, 57.9 133.94, 71.48 133.42 C85.06 132.89, 101.69 131.31, 111.83 130.1 C121.98 128.89, 128.53 127.52, 132.33 126.15 C136.12 124.78, 134.14 124.21, 134.61 121.87 C135.09 119.53, 135.02 131.05, 135.19 112.1 C135.35 93.16, 135.53 26.88, 135.59 8.19 C135.66 -10.5, 137.29 2.24, 135.58 -0.05 C133.87 -2.34, 130.01 -3.96, 125.33 -5.55 C120.64 -7.14, 117.41 -8.66, 107.48 -9.59 C97.56 -10.52, 78.12 -11.09, 65.75 -11.16 C53.39 -11.22, 43.29 -10.98, 33.27 -9.99 C23.25 -8.99, 11.36 -6.69, 5.62 -5.18 C-0.13 -3.67, -0.41 -1.69, -1.22 -0.92 C-2.03 -0.16, 0.67 -0.75, 0.75 -0.59 M0.87 1.01 C1.07 19.37, 2.21 88.51, 2.05 108.9 C1.88 129.3, -1.1 120.07, -0.13 123.39 C0.84 126.71, 2.49 127.63, 7.86 128.83 C13.22 130.03, 21.28 130, 32.06 130.58 C42.83 131.16, 59.06 132.1, 72.5 132.3 C85.94 132.5, 102.89 132.84, 112.7 131.79 C122.51 130.73, 127.42 127.8, 131.36 125.97 C135.3 124.13, 135.59 123.1, 136.32 120.79 C137.05 118.48, 135.79 130.8, 135.76 112.11 C135.72 93.42, 136.27 27.38, 136.1 8.65 C135.93 -10.08, 136.53 2.21, 134.73 -0.27 C132.94 -2.75, 129.97 -4.59, 125.31 -6.23 C120.65 -7.88, 116.65 -9.24, 106.79 -10.12 C96.93 -11, 78.72 -11.73, 66.13 -11.5 C53.53 -11.27, 41.54 -9.86, 31.23 -8.73 C20.92 -7.59, 9.37 -5.98, 4.26 -4.69 C-0.85 -3.4, 1.31 -1.68, 0.56 -1.01 C-0.19 -0.33, -0.04 -0.53, -0.25 -0.65" stroke="#1e1e1e" stroke-width="2" fill="none"></path></g></g><mask></mask><g stroke-linecap="round" transform="translate(548.3334624796137 29.775978034641184) rotate(0 67.38402894040382 13.62791290233153)"><path d="M67.78 0.51 C78.23 0.41, 91.06 0.68, 100.56 1.89 C110.06 3.1, 119.22 5.66, 124.78 7.77 C130.35 9.89, 133.79 12.49, 133.94 14.59 C134.09 16.69, 131.11 18.41, 125.68 20.38 C120.25 22.34, 110.93 25.33, 101.35 26.38 C91.76 27.43, 79.33 26.79, 68.18 26.67 C57.03 26.55, 44.16 26.55, 34.45 25.65 C24.74 24.75, 15.61 23.21, 9.91 21.28 C4.2 19.35, 0.53 16.63, 0.23 14.06 C-0.07 11.49, 2.56 7.79, 8.12 5.86 C13.67 3.93, 22.7 3.4, 33.55 2.49 C44.4 1.58, 65.59 0.84, 73.23 0.42 C80.87 -0.01, 79.61 -0.33, 79.4 -0.08 M72.34 1.19 C82.85 0.8, 95.17 0.56, 104.27 1.56 C113.37 2.57, 121.92 5.03, 126.96 7.22 C132 9.41, 135.26 12.34, 134.51 14.7 C133.76 17.07, 128.38 19.29, 122.46 21.39 C116.55 23.49, 108.6 26.22, 99.01 27.3 C89.42 28.38, 76.2 28.31, 64.92 27.87 C53.64 27.43, 40.98 25.85, 31.31 24.65 C21.64 23.45, 12.07 22.68, 6.92 20.67 C1.76 18.66, -0.34 14.92, 0.4 12.6 C1.13 10.27, 5.16 8.53, 11.34 6.72 C17.52 4.9, 27.51 2.58, 37.46 1.7 C47.42 0.82, 65.24 1.87, 71.06 1.45 C76.88 1.02, 72.39 -0.62, 72.39 -0.86" stroke="none" stroke-width="0" fill="#a5d8ff"></path><path d="M91.82 0.98 C101.95 1.74, 112.05 4.25, 118.97 5.98 C125.88 7.71, 131.35 9.45, 133.3 11.37 C135.25 13.29, 134.56 15.33, 130.67 17.51 C126.77 19.69, 118.78 22.78, 109.92 24.46 C101.07 26.13, 88.69 27.14, 77.53 27.58 C66.37 28.01, 53.34 28.12, 42.97 27.08 C32.61 26.05, 22.22 23.2, 15.34 21.37 C8.47 19.54, 3.61 18.16, 1.73 16.09 C-0.15 14.03, 0.19 11.25, 4.06 8.98 C7.93 6.72, 16.15 3.92, 24.95 2.51 C33.75 1.1, 45.17 0.74, 56.86 0.51 C68.56 0.28, 88.58 1.02, 95.12 1.14 C101.66 1.26, 96.87 1.13, 96.11 1.21 M88.08 0.19 C98.42 0.94, 108.29 3.44, 115.91 5.17 C123.54 6.9, 131.1 8.37, 133.84 10.58 C136.59 12.79, 135.94 16.34, 132.4 18.42 C128.86 20.51, 121.09 21.46, 112.61 23.11 C104.13 24.76, 92.54 27.55, 81.54 28.33 C70.55 29.1, 57.2 28.87, 46.65 27.75 C36.1 26.62, 25.57 23.23, 18.22 21.59 C10.88 19.95, 4.84 19.91, 2.58 17.91 C0.32 15.92, 1.33 12.21, 4.65 9.62 C7.97 7.02, 14.58 3.9, 22.5 2.34 C30.43 0.78, 41.31 0.49, 52.19 0.27 C63.07 0.04, 82.06 0.69, 87.78 0.98 C93.51 1.27, 86.77 1.81, 86.56 2.01" stroke="#1e1e1e" stroke-width="2" fill="none"></path></g><g transform="translate(570.1635503083946 84.86864662288423) rotate(0 49.439964294433594 25)"><text x="49.439964294433594" y="17.52" font-family="Virgil, Segoe UI Emoji" font-size="20px" fill="#1e1e1e" text-anchor="middle" style="white-space: pre;" direction="ltr" dominant-baseline="alphabetic">Vector </text><text x="49.439964294433594" y="42.519999999999996" font-family="Virgil, Segoe UI Emoji" font-size="20px" fill="#1e1e1e" text-anchor="middle" style="white-space: pre;" direction="ltr" dominant-baseline="alphabetic">Database</text></g><g transform="translate(551.6519603014774 349.2554326685844) rotate(0 65.77993774414062 12.5)"><text x="65.77993774414062" y="17.52" font-family="Virgil, Segoe UI Emoji" font-size="20px" fill="#1e1e1e" text-anchor="middle" style="white-space: pre;" direction="ltr" dominant-baseline="alphabetic">Top-K Chunks</text></g><g transform="translate(516.0612970837576 578.126007550555) rotate(0 235.21389770507812 17.5)"><text x="235.21389770507812" y="24.528" font-family="Virgil, Segoe UI Emoji" font-size="28px" fill="#e03131" text-anchor="middle" style="white-space: pre;" direction="ltr" dominant-baseline="alphabetic">Response passed directly to user!</text></g><g transform="translate(1040.8054012871428 440.4666922028724) rotate(0 90.41194915771473 35)"><text x="90.41194915771484" y="24.528" font-family="Virgil, Segoe UI Emoji" font-size="28px" fill="#e03131" text-anchor="middle" style="white-space: pre;" direction="ltr" dominant-baseline="alphabetic">May contain </text><text x="90.41194915771484" y="59.528" font-family="Virgil, Segoe UI Emoji" font-size="28px" fill="#e03131" text-anchor="middle" style="white-space: pre;" direction="ltr" dominant-baseline="alphabetic">hallucinations</text></g><g stroke-linecap="round" transform="translate(107.74569542038284 417.4820415836334) rotate(0 47.69206776954263 47.6920677695426)"><path d="M58.09 0.19 C65.69 1.1, 74.87 6.19, 80.88 11.71 C86.89 17.22, 91.93 25.52, 94.15 33.28 C96.37 41.03, 95.92 50.35, 94.19 58.25 C92.47 66.15, 89.26 74.73, 83.8 80.67 C78.34 86.61, 69.15 91.49, 61.44 93.9 C53.74 96.31, 45.11 96.92, 37.58 95.11 C30.06 93.31, 22.12 88.74, 16.3 83.08 C10.47 77.41, 5.32 68.77, 2.63 61.14 C-0.05 53.5, -1.59 44.88, 0.17 37.26 C1.93 29.63, 7.6 21.17, 13.19 15.4 C18.79 9.63, 25.74 4.97, 33.72 2.64 C41.7 0.3, 55.8 1.12, 61.07 1.4 C66.34 1.68, 65.35 3.3, 65.33 4.31 M64.32 2.64 C71.36 4.73, 79.48 11.61, 84.61 17.7 C89.75 23.79, 93.83 31.08, 95.13 39.18 C96.43 47.29, 95.11 58.46, 92.43 66.31 C89.74 74.15, 85.18 81.37, 79.03 86.27 C72.89 91.17, 63.75 94.79, 55.58 95.72 C47.41 96.65, 37.39 94.84, 30.03 91.85 C22.67 88.87, 16.36 83.93, 11.4 77.82 C6.45 71.72, 1.57 63.08, 0.3 55.24 C-0.96 47.4, 0.85 38.27, 3.81 30.79 C6.78 23.3, 11.75 15.16, 18.09 10.33 C24.43 5.49, 34.25 2.94, 41.87 1.79 C49.49 0.64, 60.27 3.21, 63.83 3.44 C67.4 3.67, 63.61 2.54, 63.28 3.15" stroke="none" stroke-width="0" fill="#96f2d7"></path><path d="M56.75 0.07 C64.27 0.86, 72.32 6.2, 78.1 11.41 C83.89 16.62, 88.65 23.99, 91.46 31.32 C94.26 38.64, 96.04 47.6, 94.93 55.36 C93.83 63.13, 89.83 71.68, 84.82 77.91 C79.81 84.14, 72.57 89.8, 64.89 92.74 C57.2 95.69, 46.63 97.05, 38.73 95.58 C30.83 94.11, 23.41 89.17, 17.49 83.94 C11.56 78.7, 6.05 71.56, 3.16 64.18 C0.27 56.79, -1.21 47.32, 0.16 39.64 C1.53 31.96, 6.22 24.23, 11.4 18.09 C16.58 11.94, 23.03 5.63, 31.24 2.77 C39.45 -0.08, 55.01 0.55, 60.64 0.96 C66.27 1.36, 65.26 4.39, 65.03 5.2 M48.72 0.58 C56.32 0.33, 64.81 3.52, 71.65 7.45 C78.5 11.38, 85.93 17.4, 89.78 24.17 C93.63 30.93, 94.69 40.1, 94.76 48.04 C94.83 55.97, 93.92 64.79, 90.2 71.78 C86.47 78.77, 79.73 85.87, 72.39 89.98 C65.05 94.09, 54.08 96.42, 46.17 96.46 C38.27 96.5, 31.6 94.37, 24.97 90.22 C18.34 86.07, 10.75 78.88, 6.39 71.56 C2.03 64.24, -1.2 54.36, -1.18 46.32 C-1.15 38.27, 2.25 30.14, 6.52 23.27 C10.8 16.41, 17.36 8.92, 24.46 5.13 C31.57 1.33, 45.16 1.23, 49.13 0.49 C53.09 -0.24, 48.48 0, 48.26 0.71" stroke="#1e1e1e" stroke-width="2" fill="none"></path></g><g stroke-linecap="round"><g transform="translate(64.29415013338485 621.4058976851195) rotate(0 91.2958814137587 -45.30458126732917)" fill-rule="evenodd"><path d="M-1.31 0.18 C-0.84 -8.3, -4.78 -35.82, 3.43 -50.8 C11.64 -65.78, 25.15 -82.68, 47.93 -89.7 C70.71 -96.73, 117.96 -99.73, 140.1 -92.94 C162.24 -86.15, 173.88 -62.34, 180.76 -48.96 C187.64 -35.57, 181.18 -19.65, 181.38 -12.61 C181.58 -5.58, 186.8 -8.09, 181.97 -6.73 C177.15 -5.38, 182.62 -5.54, 152.45 -4.46 C122.28 -3.39, 26.11 -1.21, 0.94 -0.3" stroke="none" stroke-width="0" fill="#96f2d7" fill-rule="evenodd"></path><path d="M-0.07 0.41 C0.23 -8.65, -5.49 -38.89, 2.69 -53.97 C10.87 -69.05, 25.98 -84.04, 49.02 -90.07 C72.06 -96.11, 118.9 -96.8, 140.95 -90.18 C163 -83.56, 174.33 -63.47, 181.32 -50.37 C188.31 -37.28, 182.68 -18.95, 182.89 -11.62 C183.09 -4.28, 187.06 -7.42, 182.53 -6.36 C177.99 -5.29, 186.27 -6.46, 155.68 -5.22 C125.09 -3.98, 24.87 0.28, -1.01 1.07 M-1.56 -0.42 C-1.49 -9.39, -6.61 -38.12, 1.79 -52.9 C10.2 -67.69, 25.62 -83.16, 48.84 -89.15 C72.07 -95.14, 118.78 -95.39, 141.12 -88.85 C163.46 -82.31, 176.27 -63.19, 182.89 -49.92 C189.5 -36.66, 180.69 -16.89, 180.79 -9.28 C180.89 -1.66, 187.76 -4.89, 183.48 -4.24 C179.2 -3.59, 185.62 -6.13, 155.11 -5.38 C124.61 -4.63, 26.07 -0.45, 0.45 0.25" stroke="#1e1e1e" stroke-width="2" fill="none"></path></g></g><mask></mask><g transform="translate(96.8858583800951 547.7762249118159) rotate(0 55.436698913574276 31.020131590047292)"><text x="55.43669891357422" y="43.47781643661028" font-family="Virgil, Segoe UI Emoji" font-size="49.63221054407567px" fill="#1e1e1e" text-anchor="middle" style="white-space: pre;" direction="ltr" dominant-baseline="alphabetic">User</text></g><g stroke-linecap="round" transform="translate(367.3767539704397 312.04628748144444) rotate(0 46.5 60)"><path d="M23.25 0 C38.8 3.18, 54.88 2.11, 69.75 0 C86.8 -2, 90.54 9.68, 93 23.25 C96.65 48.93, 93.79 67.42, 93 96.75 C91.55 111.59, 84.9 120.72, 69.75 120 C63.3 124.05, 51.21 122.87, 23.25 120 C6.86 119.32, 2.18 112.94, 0 96.75 C0.67 76.52, -0.66 58.54, 0 23.25 C2.96 4.99, 8.21 -3.25, 23.25 0" stroke="none" stroke-width="0" fill="#b2f2bb"></path><path d="M23.25 0 C35.44 1.84, 49.37 -0.27, 69.75 0 M23.25 0 C39.1 -0.49, 54.96 -0.36, 69.75 0 M69.75 0 C86.71 0.59, 91.32 9.54, 93 23.25 M69.75 0 C85.99 -0.91, 93.52 7.79, 93 23.25 M93 23.25 C94.91 41.39, 92.74 58.65, 93 96.75 M93 23.25 C91.98 37.67, 92.49 53.04, 93 96.75 M93 96.75 C91.07 113.16, 86.02 119.76, 69.75 120 M93 96.75 C94.36 113.19, 85.29 119.04, 69.75 120 M69.75 120 C57.33 121.07, 40.28 121.42, 23.25 120 M69.75 120 C51.6 119.27, 32.35 120.03, 23.25 120 M23.25 120 C7.38 120.43, -1.46 113.71, 0 96.75 M23.25 120 C8.51 120.36, -0.37 111.94, 0 96.75 M0 96.75 C0.28 75.72, -1.56 52.81, 0 23.25 M0 96.75 C0.26 81.51, -0.77 66.66, 0 23.25 M0 23.25 C1.9 9.25, 6.58 1.44, 23.25 0 M0 23.25 C0.51 9.73, 9.65 0.52, 23.25 0" stroke="#1e1e1e" stroke-width="2" fill="none"></path></g><g transform="translate(386.6867820466116 359.54628748144444) rotate(0 27.189971923828125 12.5)"><text x="27.189971923828125" y="17.52" font-family="Virgil, Segoe UI Emoji" font-size="20px" fill="#1e1e1e" text-anchor="middle" style="white-space: pre;" direction="ltr" dominant-baseline="alphabetic">Query</text></g><g stroke-linecap="round" transform="translate(977.4374502409187 337.8693890058182) rotate(0 65.97458649153691 47.828383442789466)"><path d="M23.91 0 C40.85 0.31, 59.82 -3, 108.03 0 C121.52 1.93, 132.36 10.63, 131.95 23.91 C132.4 40.57, 131.14 59.78, 131.95 71.74 C131.6 88.4, 120.95 96.35, 108.03 95.66 C76.93 99.19, 41.86 96.37, 23.91 95.66 C10.15 96.34, -0.61 88.4, 0 71.74 C-0.62 59.01, 2.74 36.68, 0 23.91 C0.46 4.72, 5.61 -3.24, 23.91 0" stroke="none" stroke-width="0" fill="#ffd8a8"></path><path d="M23.91 0 C48.59 -1.02, 76.51 -2.77, 108.03 0 M23.91 0 C50.41 0.06, 76.65 0.67, 108.03 0 M108.03 0 C122.3 1.79, 132.6 7.18, 131.95 23.91 M108.03 0 C124.5 0.04, 130.71 8.14, 131.95 23.91 M131.95 23.91 C132.08 39.09, 130.49 54.46, 131.95 71.74 M131.95 23.91 C131.73 40.94, 130.75 59.03, 131.95 71.74 M131.95 71.74 C132.72 87.44, 125.16 96.47, 108.03 95.66 M131.95 71.74 C131.99 86.73, 123.98 97.76, 108.03 95.66 M108.03 95.66 C81.54 97.55, 60.07 97.98, 23.91 95.66 M108.03 95.66 C81.15 94.97, 55.46 95.21, 23.91 95.66 M23.91 95.66 C6.52 97.11, 0.66 88, 0 71.74 M23.91 95.66 C7.6 95.34, 0 89.55, 0 71.74 M0 71.74 C-1.17 60.06, -2.08 50.04, 0 23.91 M0 71.74 C-0.52 61.59, 0.49 51.72, 0 23.91 M0 23.91 C-1.17 9.42, 8.41 1.72, 23.91 0 M0 23.91 C1.9 8.49, 8.95 -2.05, 23.91 0" stroke="#1e1e1e" stroke-width="2" fill="none"></path></g><g transform="translate(999.6920812881197 373.1977724486077) rotate(0 43.71995544433594 12.5)"><text x="43.71995544433594" y="17.52" font-family="Virgil, Segoe UI Emoji" font-size="20px" fill="#1e1e1e" text-anchor="middle" style="white-space: pre;" direction="ltr" dominant-baseline="alphabetic">Response</text></g><g stroke-linecap="round" transform="translate(776.6057770469449 323.2634491371655) rotate(0 46.5 60)"><path d="M23.25 0 C35.03 2.21, 48.93 2.22, 69.75 0 C88.05 -0.19, 91.39 6.3, 93 23.25 C89.84 44.63, 96.04 68.23, 93 96.75 C96.31 113.79, 87.39 119.11, 69.75 120 C56.08 120.87, 44.97 121.09, 23.25 120 C8.33 119.6, 3.42 115.21, 0 96.75 C-2.53 77.1, -1.63 60.88, 0 23.25 C2.6 5.52, 9.21 -3.55, 23.25 0" stroke="none" stroke-width="0" fill="#eebefa"></path><path d="M23.25 0 C31.69 0.87, 41.29 1.34, 69.75 0 M23.25 0 C38.88 -0.81, 54.1 -0.4, 69.75 0 M69.75 0 C84.18 0.14, 93.69 9.6, 93 23.25 M69.75 0 C85.28 -0.36, 92.07 5.56, 93 23.25 M93 23.25 C92.2 40.07, 92.84 54.9, 93 96.75 M93 23.25 C93.87 49.04, 93.3 73.6, 93 96.75 M93 96.75 C93 114.08, 85.18 121.53, 69.75 120 M93 96.75 C94.25 110.45, 86.9 122.18, 69.75 120 M69.75 120 C49.9 118.72, 33.14 119.73, 23.25 120 M69.75 120 C55.13 120.49, 39.69 120.2, 23.25 120 M23.25 120 C7.75 121.62, -1.06 113.12, 0 96.75 M23.25 120 C8.91 118.89, 0.16 110.09, 0 96.75 M0 96.75 C0.45 67.47, 1.07 40.32, 0 23.25 M0 96.75 C0.65 70.04, 1.26 41.83, 0 23.25 M0 23.25 C0.85 5.97, 5.83 -0.21, 23.25 0 M0 23.25 C1.52 7.59, 8.59 0.99, 23.25 0" stroke="#1e1e1e" stroke-width="2" fill="none"></path></g><g transform="translate(803.465785286691 370.7634491371655) rotate(0 19.639991760253906 12.5)"><text x="19.639991760253906" y="17.52" font-family="Virgil, Segoe UI Emoji" font-size="20px" fill="#1e1e1e" text-anchor="middle" style="white-space: pre;" direction="ltr" dominant-baseline="alphabetic">LLM</text></g><g stroke-linecap="round" transform="translate(573.9483613693894 314.2792948924131) rotate(0 44.67425751641838 12.02277254925525)"><path d="M6.01 0 C36.31 1.64, 63.5 -1.22, 83.34 0 C85.74 -1.45, 88.68 1.65, 89.35 6.01 C91.07 12.02, 91.16 14.63, 89.35 18.03 C91.49 21.16, 86.66 26.23, 83.34 24.05 C60.02 25.25, 34.57 23.93, 6.01 24.05 C5.42 27.01, -2.76 22.5, 0 18.03 C-0.74 13.68, 1.7 11.65, 0 6.01 C1.46 -1.54, -0.54 -2.69, 6.01 0" stroke="none" stroke-width="0" fill="#ffc9c9"></path><path d="M6.01 0 C30.47 1.08, 56.78 -2.06, 83.34 0 M6.01 0 C36.34 0.32, 65.68 0.38, 83.34 0 M83.34 0 C88.03 1.85, 89.38 1.69, 89.35 6.01 M83.34 0 C86.41 -2.19, 87.7 3.44, 89.35 6.01 M89.35 6.01 C88.9 7.86, 89.82 12.5, 89.35 18.03 M89.35 6.01 C89.43 9.22, 89.42 13.48, 89.35 18.03 M89.35 18.03 C89.28 23.57, 88.43 22.48, 83.34 24.05 M89.35 18.03 C91 24.22, 89.49 24.31, 83.34 24.05 M83.34 24.05 C58.44 23.14, 34.08 22.06, 6.01 24.05 M83.34 24.05 C54.35 24.03, 25.69 24.98, 6.01 24.05 M6.01 24.05 C0.95 24.92, 1.01 21.08, 0 18.03 M6.01 24.05 C2.16 21.89, 2.23 20.14, 0 18.03 M0 18.03 C0.29 14.4, 0.91 7.78, 0 6.01 M0 18.03 C0.47 13.7, 0.23 8.55, 0 6.01 M0 6.01 C-1.92 1.79, 3.33 -0.14, 6.01 0 M0 6.01 C0.84 3, 0.73 -1.57, 6.01 0" stroke="#1e1e1e" stroke-width="2" fill="none"></path></g><g stroke-linecap="round" transform="translate(573.9483613693897 278.6357328028736) rotate(0 44.67425751641838 12.02277254925525)"><path d="M6.01 0 C32.76 1.66, 53.98 -2.75, 83.34 0 C85.9 -0.66, 89 2.72, 89.35 6.01 C91.55 10.6, 90.31 12.49, 89.35 18.03 C88.46 21.36, 89.53 24.73, 83.34 24.05 C62.37 25.15, 39.15 27.99, 6.01 24.05 C4.97 21.28, 0.46 18.79, 0 18.03 C-1.64 16.78, -1.14 13.28, 0 6.01 C-3.55 -0.54, -0.68 0.43, 6.01 0" stroke="none" stroke-width="0" fill="#ffc9c9"></path><path d="M6.01 0 C27.19 0.83, 43.78 2.03, 83.34 0 M6.01 0 C31.73 -0.71, 57.48 0.17, 83.34 0 M83.34 0 C89.2 0.03, 89.03 1.19, 89.35 6.01 M83.34 0 C85.15 -1.65, 90.78 0.86, 89.35 6.01 M89.35 6.01 C88.19 9.41, 89.81 11.57, 89.35 18.03 M89.35 6.01 C89.15 10.33, 89.95 14.62, 89.35 18.03 M89.35 18.03 C90.88 23.13, 85.78 25.48, 83.34 24.05 M89.35 18.03 C91.53 24.18, 87.61 24.53, 83.34 24.05 M83.34 24.05 C65.84 24.45, 47.63 25.48, 6.01 24.05 M83.34 24.05 C57.46 23.92, 32.68 23.39, 6.01 24.05 M6.01 24.05 C2.88 25.06, -0.96 22.18, 0 18.03 M6.01 24.05 C-0.15 26.27, -1.91 24.28, 0 18.03 M0 18.03 C1.15 15.43, -0.69 11.88, 0 6.01 M0 18.03 C0.03 14.42, -0.64 9.72, 0 6.01 M0 6.01 C-0.21 3.33, 1.87 0.73, 6.01 0 M0 6.01 C0.99 0.73, 0.43 1.23, 6.01 0" stroke="#1e1e1e" stroke-width="2" fill="none"></path></g><g stroke-linecap="round" transform="translate(573.9483613693897 242.99217071333408) rotate(0 44.67425751641838 12.02277254925525)"><path d="M6.01 0 C37.73 -1.22, 62.24 -2.48, 83.34 0 C86.68 -0.35, 90.07 -1.02, 89.35 6.01 C91.53 10.77, 90.82 13.15, 89.35 18.03 C88.66 24.22, 88.03 23.44, 83.34 24.05 C59.19 24.01, 37.29 27.37, 6.01 24.05 C-0.76 24.51, -3.25 19.68, 0 18.03 C1.65 14.17, 0.97 10.85, 0 6.01 C-2.54 -0.68, 2.43 0.52, 6.01 0" stroke="none" stroke-width="0" fill="#ffc9c9"></path><path d="M6.01 0 C33.58 -2.24, 61.77 0.08, 83.34 0 M6.01 0 C25.62 0.06, 46.64 0.91, 83.34 0 M83.34 0 C87.37 -0.32, 88.54 0.1, 89.35 6.01 M83.34 0 C85.7 1.43, 88.21 0.56, 89.35 6.01 M89.35 6.01 C89.86 10.1, 89.17 13.97, 89.35 18.03 M89.35 6.01 C89.35 10.66, 89.33 14.67, 89.35 18.03 M89.35 18.03 C90.44 20.47, 88.78 25.94, 83.34 24.05 M89.35 18.03 C91.49 22.3, 87.83 22.24, 83.34 24.05 M83.34 24.05 C65.89 22.45, 49.05 24.56, 6.01 24.05 M83.34 24.05 C58.93 24.75, 34 24.38, 6.01 24.05 M6.01 24.05 C3.02 23.08, 0.14 20.17, 0 18.03 M6.01 24.05 C4.23 22.14, 2.23 21.86, 0 18.03 M0 18.03 C0.88 13.8, 0.84 11.23, 0 6.01 M0 18.03 C0.16 12.86, -0.68 8.69, 0 6.01 M0 6.01 C1.32 1.87, 2.73 0.86, 6.01 0 M0 6.01 C-1.28 0.43, 3.24 0.26, 6.01 0" stroke="#1e1e1e" stroke-width="2" fill="none"></path></g></svg>