<svg version="1.1" xmlns="http://www.w3.org/2000/svg" viewBox="0 0 1314.531106288765 686.8568852435938" width="1314.531106288765" height="686.8568852435938">
  <!-- svg-source:excalidraw -->
  
  <defs>
    <style class="style-fonts">
      @font-face {
        font-family: "Virgil";
        src: url("https://excalidraw.com/Virgil.woff2");
      }
      @font-face {
        font-family: "Cascadia";
        src: url("https://excalidraw.com/Cascadia.woff2");
      }
      @font-face {
        font-family: "Assistant";
        src: url("https://excalidraw.com/Assistant-Regular.woff2");
      }
    </style>
    
  </defs>
  <rect x="0" y="0" width="1314.531106288765" height="686.8568852435938" fill="#ffffff"></rect><g stroke-linecap="round" transform="translate(9.999999999999886 390.4117910450248) rotate(0 143.22254709928444 143.22254709928444)"><path d="M80.83 14.17 C92.5 6.02, 108.59 3.51, 123.21 1.41 C137.84 -0.69, 154.02 -1.11, 168.6 1.59 C183.18 4.29, 197.78 10.47, 210.68 17.61 C223.59 24.76, 235.92 33.98, 246.01 44.47 C256.1 54.96, 264.84 67.46, 271.23 80.55 C277.61 93.65, 282.24 108.24, 284.33 123.02 C286.42 137.8, 286.25 154.68, 283.77 169.24 C281.29 183.81, 276.47 197.45, 269.45 210.41 C262.42 223.36, 252.25 236.67, 241.59 247 C230.94 257.32, 218.74 266.17, 205.5 272.37 C192.26 278.58, 176.6 282.3, 162.13 284.23 C147.65 286.16, 133.18 286.34, 118.63 283.95 C104.08 281.55, 88 276.79, 74.83 269.86 C61.67 262.93, 49.86 253.19, 39.66 242.38 C29.46 231.56, 20.01 218.18, 13.62 204.94 C7.23 191.7, 3.24 177.36, 1.32 162.93 C-0.6 148.51, -0.48 133.09, 2.1 118.4 C4.68 103.71, 9.72 87.92, 16.81 74.8 C23.91 61.69, 32.97 50.43, 44.66 39.71 C56.35 28.98, 78.67 15.05, 86.95 10.45 C95.23 5.84, 93.26 9.78, 94.34 12.1 M136.58 -0.57 C150.58 -3.43, 167.94 1.35, 181.89 5.3 C195.83 9.25, 208.13 15.11, 220.26 23.13 C232.39 31.15, 245.12 41.74, 254.65 53.42 C264.18 65.09, 271.97 79.66, 277.45 93.21 C282.92 106.76, 287.07 119.92, 287.5 134.71 C287.93 149.51, 284.04 167.34, 280.01 182 C275.98 196.67, 271.06 210.74, 263.31 222.71 C255.56 234.67, 245.07 244.7, 233.51 253.78 C221.96 262.86, 207.77 271.72, 193.99 277.19 C180.21 282.65, 165.65 285.98, 150.83 286.57 C136.01 287.16, 119.21 284.81, 105.1 280.72 C90.98 276.63, 78.34 270.2, 66.12 262.03 C53.91 253.87, 41.01 243.06, 31.78 231.73 C22.56 220.4, 16.07 207.46, 10.76 194.04 C5.45 180.61, 1.08 165.62, -0.07 151.17 C-1.23 136.71, -0.22 121.41, 3.84 107.29 C7.9 93.17, 16.08 79.26, 24.29 66.42 C32.5 53.59, 41.82 39.99, 53.1 30.3 C64.37 20.62, 78.06 13.28, 91.92 8.31 C105.78 3.34, 128.89 1.41, 136.26 0.47 C143.62 -0.48, 136.25 0.29, 136.1 2.63" stroke="none" stroke-width="0" fill="#e9ecef"></path><path d="M204.64 13.6 C218.32 17.28, 229.99 27.78, 240.64 37.77 C251.29 47.76, 261.4 60.57, 268.53 73.54 C275.66 86.51, 280.77 100.99, 283.44 115.58 C286.1 130.16, 286.09 146.45, 284.52 161.07 C282.96 175.69, 280.1 189.95, 274.04 203.31 C267.98 216.67, 258.54 230.29, 248.18 241.21 C237.81 252.13, 224.66 261.89, 211.86 268.85 C199.06 275.8, 185.86 280.05, 171.35 282.96 C156.85 285.87, 139.58 287.97, 124.82 286.31 C110.06 284.65, 95.82 279.46, 82.77 273 C69.72 266.54, 57.21 257.73, 46.53 247.56 C35.85 237.39, 25.84 224.8, 18.69 211.98 C11.54 199.15, 6.73 185.11, 3.63 170.6 C0.54 156.09, -1.61 139.63, 0.13 124.9 C1.87 110.16, 7.54 95.28, 14.08 82.19 C20.62 69.1, 29.58 56.96, 39.38 46.34 C49.18 35.73, 60.19 25.92, 72.88 18.5 C85.58 11.08, 101.09 4.84, 115.56 1.81 C130.02 -1.22, 144.25 -2.03, 159.66 0.32 C175.08 2.67, 199.51 12.77, 208.05 15.89 C216.58 19.02, 212.11 16.93, 210.87 19.08 M121.15 1.25 C134.74 -3.33, 149.85 0.27, 164.53 2.45 C179.21 4.62, 195.86 7.92, 209.22 14.3 C222.58 20.69, 234.5 30.37, 244.68 40.76 C254.87 51.14, 263.53 63.22, 270.34 76.6 C277.16 89.99, 283.02 106.42, 285.58 121.06 C288.14 135.7, 288.35 149.97, 285.71 164.43 C283.08 178.89, 276.52 194.57, 269.78 207.81 C263.04 221.04, 255.45 233.4, 245.26 243.84 C235.06 254.27, 222.03 263.83, 208.6 270.42 C195.18 277.02, 179.1 281.12, 164.7 283.4 C150.3 285.68, 136.35 286.03, 122.2 284.09 C108.04 282.15, 93.07 278.29, 79.78 271.76 C66.48 265.23, 52.94 255.46, 42.43 244.92 C31.91 234.38, 23.26 221.68, 16.71 208.53 C10.16 195.38, 5.82 180.72, 3.12 166.02 C0.42 151.32, -1.75 135.04, 0.49 120.31 C2.73 105.59, 9.53 90.62, 16.55 77.67 C23.58 64.72, 32.66 52.93, 42.66 42.63 C52.65 32.32, 63.43 22.77, 76.53 15.85 C89.64 8.94, 113.7 3.21, 121.28 1.15 C128.86 -0.91, 121.8 1.05, 122.01 3.49" stroke="transparent" stroke-width="4" fill="none"></path></g><g stroke-linecap="round" transform="translate(47.72922699695266 10) rotate(0 84.50000000000006 60)"><path d="M30 0 C74.5 -4.26, 113.32 -0.42, 139 0 C157.95 0.75, 171.44 12.74, 169 30 C172.3 48.76, 166.8 76.22, 169 90 C171.04 106.56, 161.06 120.29, 139 120 C113.81 123.69, 83.77 122.6, 30 120 C6.77 120.72, -2.5 111.77, 0 90 C1.79 69.81, -0.58 49.48, 0 30 C3.5 6.71, 9.86 -1.34, 30 0" stroke="none" stroke-width="0" fill="#e9ecef"></path><path d="M30 0 C71.42 1.1, 111.27 -0.5, 139 0 M30 0 C57.38 -0.14, 84.17 -0.97, 139 0 M139 0 C157.78 -0.49, 167.18 8.14, 169 30 M139 0 C160.82 -1.45, 170.7 8.72, 169 30 M169 30 C169.2 47.61, 170.55 66.33, 169 90 M169 30 C168.63 42.6, 169.16 57.37, 169 90 M169 90 C167.28 108.64, 158.69 120.02, 139 120 M169 90 C169.57 112.09, 159.8 118.56, 139 120 M139 120 C115.95 119.73, 92.12 118.59, 30 120 M139 120 C117.09 119.08, 93.18 117.96, 30 120 M30 120 C10.33 120.63, 0.18 109.09, 0 90 M30 120 C8.08 119.78, -1.74 108.16, 0 90 M0 90 C-0.33 75.64, -0.27 57.36, 0 30 M0 90 C1.44 73.07, 1.22 56.99, 0 30 M0 30 C-0.94 10.08, 11.95 1.44, 30 0 M0 30 C0.33 9.46, 12.01 -1.62, 30 0" stroke="#1e1e1e" stroke-width="2" fill="none"></path></g><g stroke-linecap="round" transform="translate(57.72922699695266 20) rotate(0 84.50000000000006 60)"><path d="M30 0 C59.13 -2.3, 91.41 -4.5, 139 0 C158.45 2.93, 170.45 8.99, 169 30 C169.55 44.52, 166.81 64.7, 169 90 C165.82 109.56, 158.26 119.79, 139 120 C111.55 118.91, 78.67 116.43, 30 120 C10.53 117.45, -1.55 111.31, 0 90 C1.91 78.59, -1.43 63.15, 0 30 C-2.31 11.68, 8.11 -2.18, 30 0" stroke="none" stroke-width="0" fill="#e9ecef"></path><path d="M30 0 C61.95 -0.55, 91.75 -0.6, 139 0 M30 0 C59.37 -0.56, 90.69 -0.9, 139 0 M139 0 C159.11 -0.75, 170.62 9.79, 169 30 M139 0 C160.2 -0.18, 167.53 10.23, 169 30 M169 30 C168.29 41.88, 166.66 54.9, 169 90 M169 30 C168.25 46.88, 168.39 64.5, 169 90 M169 90 C167.77 109.83, 160.4 121.24, 139 120 M169 90 C167.05 111.14, 160.43 122.11, 139 120 M139 120 C104.49 117.98, 70.19 117.73, 30 120 M139 120 C100.48 118.34, 61.87 119.32, 30 120 M30 120 C9.65 119.14, -1.3 110.99, 0 90 M30 120 C10.63 118.85, 0.1 107.89, 0 90 M0 90 C-2.37 68.05, -2.41 43.77, 0 30 M0 90 C0.3 66.78, 0.05 41.97, 0 30 M0 30 C1.35 8.36, 9.87 -1.11, 30 0 M0 30 C-1.07 9.03, 10.88 -1.61, 30 0" stroke="#1e1e1e" stroke-width="2" fill="none"></path></g><g stroke-linecap="round" transform="translate(67.72922699695266 30) rotate(0 84.50000000000006 60)"><path d="M30 0 C53.88 -0.25, 87.2 1.74, 139 0 C157.99 -1.25, 170.44 10.27, 169 30 C171.45 45.02, 168.15 65.65, 169 90 C168.79 108.64, 159.14 119.62, 139 120 C99.56 118.79, 64.28 116.72, 30 120 C11.31 116.88, -1.57 107.5, 0 90 C-1.66 67.28, 1.26 47.3, 0 30 C-2.18 13.51, 7.69 -1.46, 30 0" stroke="none" stroke-width="0" fill="#e9ecef"></path><path d="M30 0 C68.63 -0.55, 106.18 1.73, 139 0 M30 0 C56.5 -0.81, 82.48 -0.05, 139 0 M139 0 C158.79 1.04, 168.85 8.72, 169 30 M139 0 C159.23 -2.06, 167.31 9.99, 169 30 M169 30 C168.44 46.82, 167.8 64.61, 169 90 M169 30 C169.73 44.68, 168.92 61.29, 169 90 M169 90 C170.24 108.3, 159.99 121.24, 139 120 M169 90 C171.11 110.47, 159.23 117.94, 139 120 M139 120 C102.62 121.69, 67.75 118.71, 30 120 M139 120 C104.98 120.06, 69.86 119.59, 30 120 M30 120 C10.99 120.55, -1 110.09, 0 90 M30 120 C7.89 122.2, 2.14 107.79, 0 90 M0 90 C0.73 79.36, 0.83 66.02, 0 30 M0 90 C-0.81 68.44, -1.15 45.46, 0 30 M0 30 C-1.11 9.07, 9.15 0.76, 30 0 M0 30 C-1.61 9.64, 9.84 1.46, 30 0" stroke="#1e1e1e" stroke-width="2" fill="none"></path></g><g stroke-linecap="round" transform="translate(77.72922699695266 40) rotate(0 84.50000000000006 60)"><path d="M30 0 C54.29 -2.6, 74.44 -0.16, 139 0 C159.27 0.12, 167.61 7.38, 169 30 C167.3 52.58, 166.68 75.72, 169 90 C168.62 111.12, 158.12 116.81, 139 120 C114.92 119.92, 90.82 117.04, 30 120 C7.5 121.44, 1.4 108.1, 0 90 C-1.19 71.89, 4.2 55.83, 0 30 C-1.46 12.65, 12 1.8, 30 0" stroke="none" stroke-width="0" fill="#e9ecef"></path><path d="M30 0 C63.69 -0.4, 94.63 2.33, 139 0 M30 0 C64.3 0.3, 97.51 0.33, 139 0 M139 0 C157.72 0.2, 167.21 8.53, 169 30 M139 0 C158.99 -0.31, 168.16 7.82, 169 30 M169 30 C169.12 46.09, 168.89 63.36, 169 90 M169 30 C169.33 53.02, 167.78 75.29, 169 90 M169 90 C170.24 111.83, 159.41 120.2, 139 120 M169 90 C166.94 110.5, 157.81 121.25, 139 120 M139 120 C111.44 119.72, 86.37 119.86, 30 120 M139 120 C101.96 120.03, 66.49 119.03, 30 120 M30 120 C10.09 118.16, 1.92 111.86, 0 90 M30 120 C7.79 117.92, 2.07 107.87, 0 90 M0 90 C0.57 69.59, 0.54 47.28, 0 30 M0 90 C-0.47 74.3, -0.87 59.29, 0 30 M0 30 C0.76 8.6, 9.68 -0.14, 30 0 M0 30 C1.46 8.83, 9.33 -0.34, 30 0" stroke="#1e1e1e" stroke-width="2" fill="none"></path></g><g transform="translate(110.63927643542922 87.5) rotate(0 51.58995056152338 12.5)"><text x="51.58995056152344" y="17.52" font-family="Virgil, Segoe UI Emoji" font-size="20px" fill="#1e1e1e" text-anchor="middle" style="white-space: pre;" direction="ltr" dominant-baseline="alphabetic">Documents</text></g><g stroke-linecap="round" transform="translate(348.72922699695255 36) rotate(0 46.5 60)"><path d="M23.25 0 C41.79 -0.08, 56.49 0.6, 69.75 0 C85.78 1.99, 93.04 9.07, 93 23.25 C96.11 44.41, 91.72 61.9, 93 96.75 C93.46 111.51, 83.3 121.58, 69.75 120 C55.94 118.63, 41 120.62, 23.25 120 C9.45 119.87, -3.47 111.35, 0 96.75 C0.61 77.47, -1.51 55.07, 0 23.25 C1.1 5.09, 9.53 3.15, 23.25 0" stroke="none" stroke-width="0" fill="#e9ecef"></path><path d="M23.25 0 C37.54 -0.24, 57.11 -1.07, 69.75 0 M23.25 0 C36.42 0.45, 50.37 -0.66, 69.75 0 M69.75 0 C85.26 1.94, 93.87 9.13, 93 23.25 M69.75 0 C85.3 2.06, 94.56 9, 93 23.25 M93 23.25 C92.65 45.6, 93.14 71.16, 93 96.75 M93 23.25 C92.25 41.04, 93.97 59.25, 93 96.75 M93 96.75 C92 112.34, 85.66 119.74, 69.75 120 M93 96.75 C93 110.61, 86.68 120.26, 69.75 120 M69.75 120 C60.01 120.25, 45.33 121.07, 23.25 120 M69.75 120 C57.14 119.4, 43.37 119.91, 23.25 120 M23.25 120 C7.09 118.59, 0.78 113.74, 0 96.75 M23.25 120 C6.77 117.73, 1.53 114.34, 0 96.75 M0 96.75 C0.23 71.01, -0.45 47.92, 0 23.25 M0 96.75 C0.36 74.22, 0.02 52.57, 0 23.25 M0 23.25 C0.69 9.2, 7.36 -0.95, 23.25 0 M0 23.25 C-1.9 7.45, 6.52 -0.74, 23.25 0" stroke="#1e1e1e" stroke-width="2" fill="none"></path></g><g transform="translate(358.8592623973432 83.5) rotate(0 36.369964599609375 12.5)"><text x="36.369964599609375" y="17.52" font-family="Virgil, Segoe UI Emoji" font-size="20px" fill="#1e1e1e" text-anchor="middle" style="white-space: pre;" direction="ltr" dominant-baseline="alphabetic">Chunker</text></g><g stroke-linecap="round"><g transform="translate(261.72922699695255 97.41803897996726) rotate(0 34.5 0.15216108519237537)"><path d="M-0.6 0.05 C10.62 0.24, 56.11 1.6, 67.9 1.45 M1.29 -0.97 C12.81 -1.11, 58.59 -0.2, 70.03 -0.06" stroke="#1e1e1e" stroke-width="2" fill="none"></path></g><g transform="translate(261.72922699695255 97.41803897996726) rotate(0 34.5 0.15216108519237537)"><path d="M46.4 8.11 C54.72 3.53, 64.81 4.38, 70.03 -0.06 M46.4 8.11 C50.37 6.87, 57.07 5.25, 70.03 -0.06" stroke="#1e1e1e" stroke-width="2" fill="none"></path></g><g transform="translate(261.72922699695255 97.41803897996726) rotate(0 34.5 0.15216108519237537)"><path d="M46.68 -8.99 C54.95 -7.59, 64.94 -0.77, 70.03 -0.06 M46.68 -8.99 C50.43 -6.74, 57.08 -4.88, 70.03 -0.06" stroke="#1e1e1e" stroke-width="2" fill="none"></path></g></g><mask></mask><g stroke-linecap="round"><g transform="translate(254.4285770709812 510.60286919402034) rotate(0 44.976067446567754 -48.87304697051735)"><path d="M1.18 -0.41 C16.26 -16.61, 74.68 -81.94, 89.64 -98.05 M0.34 -1.67 C15.31 -17.62, 73.47 -80.44, 88.53 -96.67" stroke="#1e1e1e" stroke-width="2" fill="none"></path></g><g transform="translate(254.4285770709812 510.60286919402034) rotate(0 44.976067446567754 -48.87304697051735)"><path d="M78.83 -73.62 C80.55 -79.57, 82.98 -82.76, 88.53 -96.67 M78.83 -73.62 C82.78 -82.7, 84.68 -89.64, 88.53 -96.67" stroke="#1e1e1e" stroke-width="2" fill="none"></path></g><g transform="translate(254.4285770709812 510.60286919402034) rotate(0 44.976067446567754 -48.87304697051735)"><path d="M66.29 -85.25 C70.83 -88.63, 76.17 -89.13, 88.53 -96.67 M66.29 -85.25 C74.81 -90.26, 81.19 -93.05, 88.53 -96.67" stroke="#1e1e1e" stroke-width="2" fill="none"></path></g></g><mask></mask><g stroke-linecap="round"><g transform="translate(465.18082295497743 295.93561717312303) rotate(0 31.627002888624588 -59.89474827408034)"><path d="M0.25 1.17 C10.56 -18.93, 52.46 -99.3, 62.95 -119.53 M-1.07 0.74 C8.95 -19.22, 51.26 -101.54, 61.85 -121.52" stroke="#1e1e1e" stroke-width="2" fill="none"></path></g><g transform="translate(465.18082295497743 295.93561717312303) rotate(0 31.627002888624588 -59.89474827408034)"><path d="M58.59 -96.74 C61.6 -107, 61.36 -116.28, 61.85 -121.52 M58.59 -96.74 C59.03 -102.75, 60.87 -109.75, 61.85 -121.52" stroke="#1e1e1e" stroke-width="2" fill="none"></path></g><g transform="translate(465.18082295497743 295.93561717312303) rotate(0 31.627002888624588 -59.89474827408034)"><path d="M43.42 -104.63 C52.48 -111.82, 58.21 -117.99, 61.85 -121.52 M43.42 -104.63 C47.87 -108.63, 53.7 -113.55, 61.85 -121.52" stroke="#1e1e1e" stroke-width="2" fill="none"></path></g></g><mask></mask><g stroke-linecap="round"><g transform="translate(1097.3791861128684 320.5529105712614) rotate(0 48.69069689474213 -68.42055662887054)"><path d="M-0.18 -1.13 C16.23 -24.32, 82.2 -115.14, 98.45 -137.95 M-1.73 0.88 C14.62 -21.68, 81.69 -113.97, 98.06 -136.99" stroke="#1e1e1e" stroke-width="2" fill="none"></path></g><g transform="translate(1097.3791861128684 320.5529105712614) rotate(0 48.69069689474213 -68.42055662887054)"><path d="M91.27 -112.93 C91.18 -118.33, 93.26 -127.43, 98.06 -136.99 M91.27 -112.93 C93.66 -117.83, 93.65 -122.01, 98.06 -136.99" stroke="#1e1e1e" stroke-width="2" fill="none"></path></g><g transform="translate(1097.3791861128684 320.5529105712614) rotate(0 48.69069689474213 -68.42055662887054)"><path d="M77.39 -122.92 C81.54 -125.32, 87.77 -131.43, 98.06 -136.99 M77.39 -122.92 C82.63 -125.74, 85.48 -127.87, 98.06 -136.99" stroke="#1e1e1e" stroke-width="2" fill="none"></path></g></g><mask></mask><g stroke-linecap="round"><g transform="translate(1159.7626989672792 94.42354936137713) rotate(0 -227.3981395562099 4.609142714392618)"><path d="M-0.33 1.07 C-76.29 2.3, -379.55 6.98, -455.2 8.4 M1.7 0.58 C-74.51 2.47, -380.3 8.37, -456.37 9.5" stroke="#1e1e1e" stroke-width="2" fill="none"></path></g><g transform="translate(1159.7626989672792 94.42354936137713) rotate(0 -227.3981395562099 4.609142714392618)"><path d="M-433.03 0.54 C-439.31 2.92, -450.6 7.67, -456.37 9.5 M-433.03 0.54 C-440.76 4.08, -449.41 5.49, -456.37 9.5" stroke="#1e1e1e" stroke-width="2" fill="none"></path></g><g transform="translate(1159.7626989672792 94.42354936137713) rotate(0 -227.3981395562099 4.609142714392618)"><path d="M-432.73 17.64 C-439.26 14.06, -450.65 12.84, -456.37 9.5 M-432.73 17.64 C-440.45 15.56, -449.2 11.36, -456.37 9.5" stroke="#1e1e1e" stroke-width="2" fill="none"></path></g></g><mask></mask><g stroke-linecap="round"><g transform="translate(700.4617387806336 112.42467313444149) rotate(0 227.55860022262345 9.737293245768399)"><path d="M0.76 0.59 C76.63 3.83, 380.3 15.78, 455.9 19.01 M-0.3 -0.15 C75.42 3.29, 379.17 17.3, 455.36 20.3" stroke="#1e1e1e" stroke-width="2" fill="none"></path></g><g transform="translate(700.4617387806336 112.42467313444149) rotate(0 227.55860022262345 9.737293245768399)"><path d="M431.52 27.82 C440.99 26.31, 447.69 21.07, 455.36 20.3 M431.52 27.82 C438.99 24.89, 448.71 21.62, 455.36 20.3" stroke="#1e1e1e" stroke-width="2" fill="none"></path></g><g transform="translate(700.4617387806336 112.42467313444149) rotate(0 227.55860022262345 9.737293245768399)"><path d="M432.26 10.74 C441.4 15.29, 447.84 16.11, 455.36 20.3 M432.26 10.74 C439.47 13.61, 448.95 16.13, 455.36 20.3" stroke="#1e1e1e" stroke-width="2" fill="none"></path></g></g><mask></mask><g stroke-linecap="round"><g transform="translate(475.52063701083216 394.8884561365458) rotate(0 138.97210945289032 1.4489362154233731)"><path d="M0 0.78 C46.14 1.26, 231.23 2.67, 277.67 3.05 M-1.46 0.14 C44.42 0.82, 229.97 3.94, 276.57 4.66" stroke="#1e1e1e" stroke-width="2" fill="none"></path></g><g transform="translate(475.52063701083216 394.8884561365458) rotate(0 138.97210945289032 1.4489362154233731)"><path d="M252.95 12.83 C262.96 9.36, 270.63 7.89, 276.57 4.66 M252.95 12.83 C260.67 10.03, 268.63 8.33, 276.57 4.66" stroke="#1e1e1e" stroke-width="2" fill="none"></path></g><g transform="translate(475.52063701083216 394.8884561365458) rotate(0 138.97210945289032 1.4489362154233731)"><path d="M253.22 -4.27 C263.16 -1.43, 270.73 3.42, 276.57 4.66 M253.22 -4.27 C260.94 -1.68, 268.81 2, 276.57 4.66" stroke="#1e1e1e" stroke-width="2" fill="none"></path></g></g><mask></mask><g stroke-linecap="round"><g transform="translate(465.16355030839463 100.28668560285149) rotate(0 34.500000000000114 5.020807708076546)"><path d="M-1.02 -0.52 C10.45 1.01, 58.01 8.03, 69.59 9.65 M0.64 1.83 C11.94 3.49, 57.83 9.6, 68.96 10.98" stroke="#1e1e1e" stroke-width="2" fill="none"></path></g><g transform="translate(465.16355030839463 100.28668560285149) rotate(0 34.500000000000114 5.020807708076546)"><path d="M44.56 16.44 C52.53 15.66, 61.59 11.81, 68.96 10.98 M44.56 16.44 C51.07 14.46, 55.85 14.07, 68.96 10.98" stroke="#1e1e1e" stroke-width="2" fill="none"></path></g><g transform="translate(465.16355030839463 100.28668560285149) rotate(0 34.500000000000114 5.020807708076546)"><path d="M46.76 -0.52 C54 4.83, 62.25 7.14, 68.96 10.98 M46.76 -0.52 C52.76 1.4, 57.03 4.9, 68.96 10.98" stroke="#1e1e1e" stroke-width="2" fill="none"></path></g></g><mask></mask><g stroke-linecap="round"><g transform="translate(693.0354866824632 329.375783632641) rotate(0 34.500000000000114 5.020807708076518)"><path d="M-0.97 0.36 C10.73 1.97, 57.98 8.23, 69.81 9.65 M0.71 -0.5 C12.36 1.28, 57.78 9.3, 69.29 10.98" stroke="#1e1e1e" stroke-width="2" fill="none"></path></g><g transform="translate(693.0354866824632 329.375783632641) rotate(0 34.500000000000114 5.020807708076518)"><path d="M44.73 15.64 C51.89 15.95, 57.2 15.06, 69.29 10.98 M44.73 15.64 C49.05 14.93, 55.66 14.31, 69.29 10.98" stroke="#1e1e1e" stroke-width="2" fill="none"></path></g><g transform="translate(693.0354866824632 329.375783632641) rotate(0 34.500000000000114 5.020807708076518)"><path d="M47.48 -1.24 C53.91 3.56, 58.48 7.18, 69.29 10.98 M47.48 -1.24 C51.39 1.51, 57.44 4.33, 69.29 10.98" stroke="#1e1e1e" stroke-width="2" fill="none"></path></g></g><mask></mask><g stroke-linecap="round"><g transform="translate(888.3436822138676 390.63962069133964) rotate(0 40.36327757680067 -0.6671448141258907)"><path d="M1.14 -0.23 C14.33 -0.64, 66.6 -2.19, 79.94 -2.2 M0.28 -1.39 C13.79 -1.69, 68.84 -1, 82.24 -1.12" stroke="#1e1e1e" stroke-width="2" fill="none"></path></g><g transform="translate(888.3436822138676 390.63962069133964) rotate(0 40.36327757680067 -0.6671448141258907)"><path d="M58.73 7.36 C66.9 2.74, 74.4 1.78, 82.24 -1.12 M58.73 7.36 C66.94 3.37, 77.79 0.72, 82.24 -1.12" stroke="#1e1e1e" stroke-width="2" fill="none"></path></g><g transform="translate(888.3436822138676 390.63962069133964) rotate(0 40.36327757680067 -0.6671448141258907)"><path d="M58.78 -9.74 C66.97 -8.13, 74.45 -2.86, 82.24 -1.12 M58.78 -9.74 C66.94 -7.16, 77.77 -3.24, 82.24 -1.12" stroke="#1e1e1e" stroke-width="2" fill="none"></path></g></g><mask></mask><g stroke-linecap="round"><g transform="translate(1062.3740165416098 571.3721438312136) rotate(0 -398.0942672017352 3.899070605974714)"><path d="M-0.04 -0.34 C-132.6 0.71, -663.01 6.13, -795.61 7.34 M-1.52 -1.56 C-134.16 0.16, -663.82 7.08, -796.26 8.64" stroke="#1e1e1e" stroke-width="2" fill="none"></path></g><g transform="translate(1062.3740165416098 571.3721438312136) rotate(0 -398.0942672017352 3.899070605974714)"><path d="M-772.88 -0.2 C-779.87 3.21, -786.57 5.62, -796.26 8.64 M-772.88 -0.2 C-778.6 2.58, -783.5 2.98, -796.26 8.64" stroke="#1e1e1e" stroke-width="2" fill="none"></path></g><g transform="translate(1062.3740165416098 571.3721438312136) rotate(0 -398.0942672017352 3.899070605974714)"><path d="M-772.66 16.9 C-779.87 15.55, -786.63 13.19, -796.26 8.64 M-772.66 16.9 C-778.45 15.75, -783.4 12.22, -796.26 8.64" stroke="#1e1e1e" stroke-width="2" fill="none"></path></g></g><mask></mask><g stroke-linecap="round"><g transform="translate(617.8361629492213 186.06996252335796) rotate(0 -0.6891071880500022 23.734652286560504)"><path d="M-0.12 0.39 C-0.36 8.38, -1.44 39.94, -1.61 47.87 M0.82 0.12 C0.5 7.95, -1.79 39.27, -2.16 47.11" stroke="#1e1e1e" stroke-width="2" fill="none"></path></g><g transform="translate(617.8361629492213 186.06996252335796) rotate(0 -0.6891071880500022 23.734652286560504)"><path d="M-8.89 24.33 C-6.36 30.11, -4.52 37.1, -2.16 47.11 M-8.89 24.33 C-6.62 33.24, -3.24 41.51, -2.16 47.11" stroke="#1e1e1e" stroke-width="2" fill="none"></path></g><g transform="translate(617.8361629492213 186.06996252335796) rotate(0 -0.6891071880500022 23.734652286560504)"><path d="M7.32 25.34 C5.44 30.82, 2.87 37.54, -2.16 47.11 M7.32 25.34 C3.34 33.9, 0.48 41.78, -2.16 47.11" stroke="#1e1e1e" stroke-width="2" fill="none"></path></g></g><mask></mask><g stroke-linecap="round"><g transform="translate(1245.9905970291493 186.3326692775895) rotate(0 -0.4116091798398429 158.81864481118438)"><path d="M-0.78 -0.49 C-1.06 52.45, -0.83 263.79, -0.93 316.81 M1.01 -1.8 C0.5 51.35, -1.36 264.46, -1.93 317.91" stroke="#1e1e1e" stroke-width="2" fill="none"></path></g><g transform="translate(1245.9905970291493 186.3326692775895) rotate(0 -0.4116091798398429 158.81864481118438)"><path d="M-10.25 294.34 C-8.21 302.8, -5.74 310.64, -1.93 317.91 M-10.25 294.34 C-6.97 301.89, -5.73 307.63, -1.93 317.91" stroke="#1e1e1e" stroke-width="2" fill="none"></path></g><g transform="translate(1245.9905970291493 186.3326692775895) rotate(0 -0.4116091798398429 158.81864481118438)"><path d="M6.85 294.5 C2.67 302.79, -1.08 310.57, -1.93 317.91 M6.85 294.5 C5.04 302.17, 1.18 307.86, -1.93 317.91" stroke="#1e1e1e" stroke-width="2" fill="none"></path></g></g><mask></mask><g stroke-linecap="round"><g transform="translate(1033.4137010585634 448.28513201184734) rotate(0 -380.3630174128291 54.08227773890616)"><path d="M-0.39 -1.04 C-18.42 15.07, 17.33 77.79, -109.33 95.96 C-235.98 114.13, -651.86 106.01, -760.31 107.96 M1.6 1.03 C-16.51 17.31, 16.63 78.95, -110.45 96.98 C-237.53 115, -652.69 107.25, -760.86 109.17" stroke="#ced4da" stroke-width="2" fill="none"></path></g><g transform="translate(1033.4137010585634 448.28513201184734) rotate(0 -380.3630174128291 54.08227773890616)"><path d="M-737.37 100.61 C-743.91 101.71, -748.59 104.7, -760.86 109.17 M-737.37 100.61 C-743.86 103.16, -750.29 105.44, -760.86 109.17" stroke="#ced4da" stroke-width="2" fill="none"></path></g><g transform="translate(1033.4137010585634 448.28513201184734) rotate(0 -380.3630174128291 54.08227773890616)"><path d="M-737.36 117.71 C-743.81 115.35, -748.48 114.86, -760.86 109.17 M-737.36 117.71 C-743.95 115.42, -750.38 112.86, -760.86 109.17" stroke="#ced4da" stroke-width="2" fill="none"></path></g></g><mask></mask><g stroke-linecap="round"><g transform="translate(549.2030960512122 42.85867657023687) rotate(0 67.7456931461171 60.99447582762019)" fill-rule="evenodd"><path d="M-1.36 2.27 C-1.05 20.43, 1.77 88.18, 2.07 108.52 C2.38 128.87, -0.66 120.8, 0.5 124.32 C1.65 127.83, 3.55 128.02, 9 129.64 C14.46 131.25, 22.28 133.23, 33.22 134.03 C44.17 134.82, 61.67 134.67, 74.67 134.41 C87.68 134.16, 102.06 133.83, 111.26 132.48 C120.46 131.13, 126.03 128.42, 129.88 126.32 C133.73 124.23, 133.3 122.4, 134.36 119.92 C135.43 117.43, 136.3 129.6, 136.26 111.41 C136.22 93.21, 134.63 29.69, 134.12 10.75 C133.6 -8.19, 134.36 0.29, 133.17 -2.22 C131.99 -4.73, 131 -3.46, 127.02 -4.33 C123.03 -5.19, 119.1 -6.01, 109.25 -7.42 C99.41 -8.83, 80.93 -12.58, 67.97 -12.8 C55.01 -13.02, 41.59 -10.47, 31.52 -8.72 C21.45 -6.98, 13 -4.16, 7.55 -2.34 C2.09 -0.51, 0.41 1.72, -1.23 2.21 C-2.86 2.71, -2.69 1.25, -2.25 0.63" stroke="none" stroke-width="0" fill="#e9ecef" fill-rule="evenodd"></path><path d="M0.47 -0.95 C0.53 17.09, -0.05 88.37, 0 108.76 C0.04 129.15, -0.28 118.12, 0.72 121.37 C1.72 124.62, 1.07 126.65, 5.98 128.27 C10.89 129.89, 19.31 130.4, 30.18 131.11 C41.05 131.83, 57.66 132.6, 71.21 132.55 C84.75 132.5, 101.32 132.1, 111.46 130.82 C121.59 129.55, 127.89 126.65, 132.01 124.9 C136.13 123.16, 135.4 122.55, 136.18 120.38 C136.96 118.2, 136.75 130.35, 136.69 111.85 C136.63 93.35, 136.26 27.99, 135.82 9.37 C135.38 -9.25, 135.86 2.67, 134.05 0.12 C132.24 -2.42, 129.3 -4.38, 124.96 -5.9 C120.62 -7.41, 118.07 -8, 108.01 -8.97 C97.95 -9.95, 77.34 -11.49, 64.59 -11.75 C51.85 -12.01, 41.5 -11.86, 31.53 -10.55 C21.56 -9.25, 10.02 -5.51, 4.78 -3.92 C-0.46 -2.33, 0.87 -1.79, 0.1 -1 C-0.68 -0.21, 0.26 0.51, 0.12 0.8 M-0.75 1.16 C-0.85 19.28, -1.37 89.63, -1.19 109.81 C-1.01 130, -0.83 119.56, 0.32 122.27 C1.47 124.98, 0.46 124.63, 5.7 126.08 C10.95 127.53, 20.75 129.54, 31.81 130.97 C42.87 132.39, 58.69 134.32, 72.08 134.64 C85.46 134.96, 102.32 134.65, 112.12 132.89 C121.92 131.13, 127.06 125.85, 130.88 124.06 C134.7 122.28, 134.46 124.24, 135.04 122.18 C135.63 120.13, 134.15 130.35, 134.39 111.72 C134.62 93.1, 136.17 29.07, 136.45 10.45 C136.72 -8.18, 138.01 2.86, 136.06 -0.01 C134.11 -2.88, 129.49 -5.23, 124.75 -6.76 C120 -8.29, 117.66 -8.24, 107.59 -9.18 C97.53 -10.12, 76.92 -12.33, 64.36 -12.4 C51.8 -12.47, 41.85 -10.58, 32.24 -9.59 C22.62 -8.59, 12.2 -7.83, 6.65 -6.42 C1.09 -5.01, 0.21 -2.44, -1.1 -1.13 C-2.41 0.19, -1.27 1.4, -1.21 1.48" stroke="#1e1e1e" stroke-width="2" fill="none"></path></g></g><mask></mask><g stroke-linecap="round" transform="translate(548.3334624796137 29.775978034641184) rotate(0 67.38402894040382 13.62791290233153)"><path d="M59.57 -0.35 C70.09 -1.1, 83.86 -0.93, 94.12 0.12 C104.37 1.17, 114.54 3.85, 121.11 5.93 C127.68 8.01, 132.11 10.32, 133.56 12.62 C135.01 14.92, 133.85 17.76, 129.81 19.72 C125.77 21.68, 118.41 23.16, 109.32 24.36 C100.23 25.55, 86.5 26.54, 75.26 26.86 C64.01 27.19, 51.9 27.16, 41.83 26.33 C31.76 25.5, 21.8 23.64, 14.85 21.88 C7.89 20.12, 1.87 18.06, 0.11 15.78 C-1.64 13.51, -0.15 10.52, 4.32 8.23 C8.79 5.93, 16.82 3.2, 26.95 2 C37.09 0.79, 57.86 1.21, 65.11 1 C72.37 0.78, 70.46 0.55, 70.48 0.71 M92.16 0.06 C102.77 0.73, 115.34 4.6, 122.52 6.66 C129.7 8.72, 134.25 10.31, 135.24 12.4 C136.24 14.5, 132.84 17.39, 128.48 19.25 C124.12 21.1, 117.84 22.27, 109.08 23.54 C100.32 24.8, 87.26 26.48, 75.92 26.83 C64.58 27.17, 51.36 26.45, 41.06 25.61 C30.75 24.77, 20.71 23.56, 14.11 21.79 C7.51 20.02, 2.83 17.03, 1.47 14.96 C0.12 12.9, 1.61 11.41, 5.98 9.4 C10.36 7.38, 18.72 4.52, 27.71 2.87 C36.71 1.22, 49.17 -0.29, 59.96 -0.5 C70.75 -0.7, 86.91 1.4, 92.48 1.64 C98.05 1.89, 93.9 0.81, 93.4 0.95" stroke="none" stroke-width="0" fill="#e9ecef"></path><path d="M87.33 -0.31 C97.8 0.12, 108.1 1.62, 115.57 3.42 C123.03 5.23, 129.46 8.21, 132.12 10.53 C134.78 12.86, 134.76 15.06, 131.54 17.37 C128.32 19.68, 121.04 22.66, 112.8 24.4 C104.57 26.14, 92.85 27.37, 82.14 27.83 C71.43 28.29, 59.15 28.04, 48.54 27.16 C37.93 26.29, 26.2 24.44, 18.49 22.59 C10.78 20.74, 4.89 18.13, 2.27 16.06 C-0.34 13.99, -0.37 12.37, 2.78 10.17 C5.93 7.96, 12.99 4.53, 21.15 2.81 C29.3 1.09, 40.44 0.33, 51.73 -0.16 C63.02 -0.65, 82.17 -0.36, 88.9 -0.11 C95.63 0.14, 92.51 0.96, 92.09 1.33 M89.61 0.46 C100.03 1.06, 110.02 4.45, 117.51 6.1 C125.01 7.75, 132.25 8.13, 134.56 10.35 C136.86 12.56, 134.98 16.93, 131.33 19.41 C127.69 21.88, 121.05 23.74, 112.71 25.2 C104.37 26.66, 92.28 27.87, 81.3 28.17 C70.31 28.48, 57.61 27.84, 46.79 27.03 C35.96 26.21, 24.17 25.03, 16.33 23.27 C8.5 21.51, 1.96 18.97, -0.22 16.48 C-2.4 13.99, -0.75 10.5, 3.24 8.32 C7.23 6.15, 15.27 4.62, 23.73 3.43 C32.19 2.24, 43.18 1.82, 54 1.19 C64.82 0.57, 82.69 -0.46, 88.65 -0.34 C94.62 -0.22, 89.83 1.38, 89.78 1.93" stroke="#1e1e1e" stroke-width="2" fill="none"></path></g><g transform="translate(570.1635503083946 84.86864662288417) rotate(0 49.439964294433594 25)"><text x="49.439964294433594" y="17.52" font-family="Virgil, Segoe UI Emoji" font-size="20px" fill="#1e1e1e" text-anchor="middle" style="white-space: pre;" direction="ltr" dominant-baseline="alphabetic">Vector </text><text x="49.439964294433594" y="42.519999999999996" font-family="Virgil, Segoe UI Emoji" font-size="20px" fill="#1e1e1e" text-anchor="middle" style="white-space: pre;" direction="ltr" dominant-baseline="alphabetic">Database</text></g><g transform="translate(551.6519603014774 349.2554326685843) rotate(0 65.77993774414062 12.5)"><text x="65.77993774414062" y="17.52" font-family="Virgil, Segoe UI Emoji" font-size="20px" fill="#1e1e1e" text-anchor="middle" style="white-space: pre;" direction="ltr" dominant-baseline="alphabetic">Top-K Chunks</text></g><g stroke-linecap="round" transform="translate(107.74569542038284 417.48204158363336) rotate(0 47.69206776954263 47.692067769542575)"><path d="M28.58 4.17 C35.45 0.47, 45.89 -1.61, 53.7 -0.65 C61.51 0.32, 69.23 5.03, 75.43 9.98 C81.64 14.93, 87.57 21.95, 90.94 29.07 C94.31 36.19, 96.26 44.79, 95.64 52.71 C95.01 60.63, 92.02 70.23, 87.18 76.57 C82.34 82.92, 74.04 87.76, 66.59 90.79 C59.14 93.81, 50.49 95.32, 42.5 94.72 C34.51 94.12, 24.9 91.66, 18.65 87.2 C12.41 82.73, 7.96 75.47, 5.03 67.93 C2.1 60.39, 0.33 50.05, 1.05 41.98 C1.78 33.9, 4.57 26.07, 9.37 19.49 C14.17 12.91, 26.28 5.26, 29.87 2.5 C33.45 -0.26, 30.61 2.08, 30.87 2.94 M34.74 1.15 C41.54 -1.78, 50.17 -0.06, 57.91 1.74 C65.65 3.55, 75.42 6.44, 81.19 11.96 C86.95 17.49, 90.38 27.26, 92.48 34.9 C94.59 42.54, 95.41 50.48, 93.81 57.8 C92.21 65.13, 88.37 73.11, 82.89 78.85 C77.41 84.6, 68.66 89.71, 60.92 92.27 C53.18 94.83, 43.84 95.93, 36.44 94.21 C29.03 92.49, 21.96 87.43, 16.47 81.97 C10.99 76.5, 6 68.67, 3.52 61.41 C1.04 54.15, -0.15 46.03, 1.6 38.41 C3.36 30.79, 8.8 21.87, 14.06 15.71 C19.31 9.54, 29.95 3.76, 33.13 1.4 C36.31 -0.95, 32.75 0.9, 33.14 1.56" stroke="none" stroke-width="0" fill="#96f2d7"></path><path d="M41.08 0.39 C48.55 -1.43, 59.6 -0.09, 66.92 2.91 C74.25 5.92, 80.42 12.07, 85.02 18.43 C89.63 24.8, 93.41 33.08, 94.57 41.11 C95.72 49.15, 94.98 59.33, 91.93 66.64 C88.88 73.95, 82.57 80.2, 76.25 84.98 C69.94 89.75, 61.92 94.05, 54.03 95.29 C46.15 96.53, 36.44 95.51, 28.94 92.41 C21.44 89.31, 13.88 83.28, 9.04 76.68 C4.2 70.08, 0.73 60.6, -0.09 52.79 C-0.91 44.99, 0.87 37.18, 4.13 29.86 C7.39 22.54, 12.49 13.89, 19.46 8.88 C26.43 3.86, 40.93 0.92, 45.95 -0.23 C50.96 -1.38, 49.65 1.04, 49.52 1.98 M51.93 -0.32 C59.37 -0.15, 67.64 4.3, 74.27 8.96 C80.89 13.63, 88.24 20.35, 91.67 27.67 C95.11 35, 95.81 44.8, 94.88 52.91 C93.95 61.02, 90.41 70.12, 86.11 76.34 C81.8 82.56, 76.07 86.88, 69.05 90.24 C62.03 93.6, 52.15 96.86, 43.99 96.5 C35.83 96.15, 26.85 92.74, 20.08 88.09 C13.31 83.45, 6.75 75.96, 3.34 68.64 C-0.06 61.32, -1.34 52.27, -0.35 44.17 C0.63 36.08, 4.5 26.83, 9.27 20.07 C14.05 13.31, 21.36 6.85, 28.29 3.62 C35.21 0.39, 46.9 0.89, 50.84 0.69 C54.77 0.49, 51.59 1.86, 51.89 2.4" stroke="#1e1e1e" stroke-width="2" fill="none"></path></g><g stroke-linecap="round"><g transform="translate(64.29415013338485 621.4058976851195) rotate(0 91.2958814137587 -45.30458126732918)" fill-rule="evenodd"><path d="M1.18 -0.86 C1.41 -9.21, -4.19 -37.43, 3.51 -51.95 C11.2 -66.47, 24.66 -81.28, 47.36 -87.98 C70.05 -94.68, 117 -98.44, 139.66 -92.14 C162.33 -85.84, 175.85 -64.01, 183.35 -50.16 C190.86 -36.31, 185.19 -16.17, 184.67 -9.02 C184.16 -1.86, 185.61 -7.45, 180.27 -7.22 C174.93 -6.98, 182.9 -8.47, 152.62 -7.61 C122.33 -6.75, 23.93 -3.37, -1.43 -2.07" stroke="none" stroke-width="0" fill="#96f2d7" fill-rule="evenodd"></path><path d="M-0.9 0.7 C-0.41 -8.33, -5.22 -38, 2.79 -52.98 C10.81 -67.96, 24.23 -82.83, 47.21 -89.19 C70.2 -95.56, 118.1 -97.74, 140.7 -91.19 C163.3 -84.63, 175.81 -63.16, 182.82 -49.85 C189.83 -36.54, 182.75 -18.56, 182.76 -11.34 C182.76 -4.12, 187.33 -7.65, 182.85 -6.53 C178.37 -5.42, 186.45 -5.8, 155.89 -4.66 C125.33 -3.52, 25.29 -0.43, -0.52 0.3 M0.82 0.02 C1.19 -8.29, -5.59 -36.76, 1.95 -51.4 C9.5 -66.04, 22.96 -81.31, 46.09 -87.81 C69.22 -94.31, 118.17 -96.83, 140.74 -90.39 C163.31 -83.94, 174.25 -62.11, 181.5 -49.13 C188.76 -36.15, 184.45 -19.95, 184.25 -12.52 C184.06 -5.08, 185.12 -5.84, 180.31 -4.51 C175.51 -3.18, 185.28 -5.12, 155.43 -4.53 C125.58 -3.93, 27.32 -1.54, 1.2 -0.92" stroke="#1e1e1e" stroke-width="2" fill="none"></path></g></g><mask></mask><g transform="translate(96.8858583800951 547.7762249118159) rotate(0 55.436698913574276 31.0201315900473)"><text x="55.43669891357422" y="43.47781643661028" font-family="Virgil, Segoe UI Emoji" font-size="49.63221054407567px" fill="#1e1e1e" text-anchor="middle" style="white-space: pre;" direction="ltr" dominant-baseline="alphabetic">User</text></g><g stroke-linecap="round" transform="translate(367.3767539704397 312.0462874814444) rotate(0 46.5 60)"><path d="M23.25 0 C32.46 -2.67, 48.6 -4.06, 69.75 0 C88.53 -2.19, 95.98 7.94, 93 23.25 C92.75 43.13, 91.91 57.67, 93 96.75 C96.44 114.73, 81.93 121.87, 69.75 120 C60.69 123.18, 47.38 118.01, 23.25 120 C6.73 119.29, 2.87 108.71, 0 96.75 C1.71 82.34, 1.36 67.16, 0 23.25 C0.43 9.93, 7.2 0.98, 23.25 0" stroke="none" stroke-width="0" fill="#e9ecef"></path><path d="M23.25 0 C35.33 -2.13, 51.22 1.07, 69.75 0 M23.25 0 C41.91 0.94, 60.19 -0.25, 69.75 0 M69.75 0 C86.95 0.31, 92.87 6.04, 93 23.25 M69.75 0 C84.13 1.15, 91.07 9.61, 93 23.25 M93 23.25 C94.05 53.3, 93.11 81.34, 93 96.75 M93 23.25 C92.52 39.18, 92.7 54.65, 93 96.75 M93 96.75 C91.01 113.9, 83.34 121.46, 69.75 120 M93 96.75 C94.29 111.05, 83.18 120.95, 69.75 120 M69.75 120 C54.47 118.21, 39.72 119.4, 23.25 120 M69.75 120 C59.42 119.43, 47.06 120.25, 23.25 120 M23.25 120 C8.02 119.56, -1.22 113.07, 0 96.75 M23.25 120 C7.59 117.97, -2.01 112.48, 0 96.75 M0 96.75 C-1.75 74.15, 0.77 53.62, 0 23.25 M0 96.75 C0.35 69.27, 0.78 43.89, 0 23.25 M0 23.25 C-1.16 8.98, 8.26 1.73, 23.25 0 M0 23.25 C-0.85 9.01, 9.15 1.95, 23.25 0" stroke="#1e1e1e" stroke-width="2" fill="none"></path></g><g transform="translate(386.6867820466116 359.5462874814444) rotate(0 27.189971923828125 12.5)"><text x="27.189971923828125" y="17.52" font-family="Virgil, Segoe UI Emoji" font-size="20px" fill="#1e1e1e" text-anchor="middle" style="white-space: pre;" direction="ltr" dominant-baseline="alphabetic">Query</text></g><g stroke-linecap="round" transform="translate(977.4374502409187 337.86938900581816) rotate(0 65.97458649153691 47.82838344278946)"><path d="M23.91 0 C47.79 4.53, 72.96 -0.52, 108.03 0 C124.22 0.28, 130.23 9.23, 131.95 23.91 C133.76 43.41, 130.43 54.61, 131.95 71.74 C134.68 84.82, 123.63 96.42, 108.03 95.66 C82.34 98.83, 48.92 91.92, 23.91 95.66 C6.53 99.12, 3.24 88.93, 0 71.74 C-0.02 54.39, -2.57 47.05, 0 23.91 C0.66 7.13, 9.53 0.71, 23.91 0" stroke="none" stroke-width="0" fill="#e9ecef"></path><path d="M23.91 0 C47.5 -0.43, 72.48 -0.46, 108.03 0 M23.91 0 C41.1 -0.42, 60.33 -0.62, 108.03 0 M108.03 0 C123.48 0.95, 130.09 9.34, 131.95 23.91 M108.03 0 C123.98 -1.69, 133.13 6.47, 131.95 23.91 M131.95 23.91 C131.87 38.86, 130.18 52.54, 131.95 71.74 M131.95 23.91 C131.48 41.45, 131.64 58.24, 131.95 71.74 M131.95 71.74 C133.67 86.73, 124 97.03, 108.03 95.66 M131.95 71.74 C130.92 85.53, 125.87 97.32, 108.03 95.66 M108.03 95.66 C90.1 97.46, 72.41 96.87, 23.91 95.66 M108.03 95.66 C83.22 95.99, 57.16 94.59, 23.91 95.66 M23.91 95.66 C7.2 95.67, 0.03 87.03, 0 71.74 M23.91 95.66 C6.13 93.81, -0.01 86.51, 0 71.74 M0 71.74 C-0.41 59.76, 0.2 45.81, 0 23.91 M0 71.74 C-0.51 60.82, 0.97 48.1, 0 23.91 M0 23.91 C-1.37 8.37, 6.13 -1.98, 23.91 0 M0 23.91 C-2.25 9.77, 7.01 -2.04, 23.91 0" stroke="#1e1e1e" stroke-width="2" fill="none"></path></g><g transform="translate(999.6920812881197 373.1977724486076) rotate(0 43.71995544433594 12.5)"><text x="43.71995544433594" y="17.52" font-family="Virgil, Segoe UI Emoji" font-size="20px" fill="#1e1e1e" text-anchor="middle" style="white-space: pre;" direction="ltr" dominant-baseline="alphabetic">Response</text></g><g stroke-linecap="round" transform="translate(1076.302344044609 524.4787584459061) rotate(0 113.44389106465792 42.82838344278946)"><path d="M21.41 0 C88.86 -1.08, 157.28 -3.01, 205.47 0 C219.98 2.84, 224.42 5.33, 226.89 21.41 C227.95 39.72, 223.67 54.28, 226.89 64.24 C229.45 80.2, 221.74 83.93, 205.47 85.66 C149.03 83.92, 86.38 82.31, 21.41 85.66 C9.06 82.66, 0.44 78.39, 0 64.24 C-2.21 57.12, 2.36 44.41, 0 21.41 C0.48 9.76, 9.11 1.69, 21.41 0" stroke="none" stroke-width="0" fill="#a5d8ff"></path><path d="M21.41 0 C73.97 -2.35, 127.03 -0.96, 205.47 0 M21.41 0 C77.36 -1.39, 133.53 -0.91, 205.47 0 M205.47 0 C220.59 -1.75, 228.51 7.82, 226.89 21.41 M205.47 0 C217.94 1.7, 226.31 5.86, 226.89 21.41 M226.89 21.41 C226.23 31.3, 226.98 46.98, 226.89 64.24 M226.89 21.41 C225.79 38.09, 225.74 52.83, 226.89 64.24 M226.89 64.24 C226.3 77.77, 218.96 84.46, 205.47 85.66 M226.89 64.24 C228.07 79.71, 220.07 83.85, 205.47 85.66 M205.47 85.66 C167.11 85.18, 131.02 84.3, 21.41 85.66 M205.47 85.66 C137.57 87.43, 72.19 87.57, 21.41 85.66 M21.41 85.66 C8.81 86.72, 0.01 77.99, 0 64.24 M21.41 85.66 C6.88 84.07, -0.86 80.21, 0 64.24 M0 64.24 C0.61 47.44, -0.72 29.47, 0 21.41 M0 64.24 C-0.94 53.51, -0.04 40.98, 0 21.41 M0 21.41 C1.31 7.04, 6.32 -0.18, 21.41 0 M0 21.41 C0.58 6.04, 5.1 -0.86, 21.41 0" stroke="#1e1e1e" stroke-width="2" fill="none"></path></g><g transform="translate(1087.5663416156146 542.3071418886957) rotate(0 102.17989349365246 25)"><text x="102.17989349365234" y="17.52" font-family="Virgil, Segoe UI Emoji" font-size="20px" fill="#1e1e1e" text-anchor="middle" style="white-space: pre;" direction="ltr" dominant-baseline="alphabetic">Response with </text><text x="102.17989349365234" y="42.519999999999996" font-family="Virgil, Segoe UI Emoji" font-size="20px" fill="#1e1e1e" text-anchor="middle" style="white-space: pre;" direction="ltr" dominant-baseline="alphabetic">Deterministic Quotes</text></g><g stroke-linecap="round" transform="translate(1172.5819333056909 69.83793632590613) rotate(0 65.97458649153702 47.82838344278946)"><path d="M23.91 0 C47.53 2.29, 72.87 1.88, 108.03 0 C123.04 -3.53, 130.71 8.1, 131.95 23.91 C129.72 39.84, 132.15 58.31, 131.95 71.74 C130.61 87.82, 121.21 96.32, 108.03 95.66 C78.27 95.1, 47.75 93.17, 23.91 95.66 C8.58 99.2, -1.96 87.49, 0 71.74 C-0.95 62.81, -2.83 48.48, 0 23.91 C3.16 10.95, 4.42 -0.11, 23.91 0" stroke="none" stroke-width="0" fill="#a5d8ff"></path><path d="M23.91 0 C40.14 -0.9, 58.48 0.57, 108.03 0 M23.91 0 C42.93 -1.36, 61.12 -0.39, 108.03 0 M108.03 0 C125.9 -1.41, 132.28 9.86, 131.95 23.91 M108.03 0 C124.48 0.25, 133.08 10.24, 131.95 23.91 M131.95 23.91 C132.29 36.92, 131.23 50.72, 131.95 71.74 M131.95 23.91 C132.42 35.16, 130.86 48.03, 131.95 71.74 M131.95 71.74 C131.24 88.46, 123.21 94.6, 108.03 95.66 M131.95 71.74 C131.25 86.35, 126.14 94.33, 108.03 95.66 M108.03 95.66 C85.16 95.6, 65.57 95.86, 23.91 95.66 M108.03 95.66 C77.82 95.71, 46.98 95.55, 23.91 95.66 M23.91 95.66 C8.48 96.51, 0.69 87.78, 0 71.74 M23.91 95.66 C7.65 94.23, -1.3 89.36, 0 71.74 M0 71.74 C-0.09 56.46, 1.82 36, 0 23.91 M0 71.74 C0.48 56.25, -0.22 39.71, 0 23.91 M0 23.91 C1.32 8.86, 8.12 -1.94, 23.91 0 M0 23.91 C2.13 5.79, 6.34 0.11, 23.91 0" stroke="#1e1e1e" stroke-width="2" fill="none"></path></g><g transform="translate(1193.6965649632432 92.66631976869559) rotate(0 44.85995483398426 25)"><text x="44.859954833984375" y="17.52" font-family="Virgil, Segoe UI Emoji" font-size="20px" fill="#1e1e1e" text-anchor="middle" style="white-space: pre;" direction="ltr" dominant-baseline="alphabetic">Quote </text><text x="44.859954833984375" y="42.519999999999996" font-family="Virgil, Segoe UI Emoji" font-size="20px" fill="#1e1e1e" text-anchor="middle" style="white-space: pre;" direction="ltr" dominant-baseline="alphabetic">Retriever</text></g><g stroke-linecap="round" transform="translate(776.6057770469449 323.2634491371654) rotate(0 46.5 60)"><path d="M23.25 0 C34.45 -2.54, 49.07 2.42, 69.75 0 C88.17 -2.26, 94.91 11.28, 93 23.25 C95.15 41.79, 91.79 51.08, 93 96.75 C92.85 113.06, 87.79 119.86, 69.75 120 C57.86 118.06, 36.24 123.17, 23.25 120 C6.64 123.57, -3.25 111.68, 0 96.75 C-2.8 75.53, 1.99 62.3, 0 23.25 C1.77 5.15, 10.32 0.68, 23.25 0" stroke="none" stroke-width="0" fill="#e9ecef"></path><path d="M23.25 0 C36.71 2.12, 53.49 -0.84, 69.75 0 M23.25 0 C35.72 -0.64, 50.67 -0.11, 69.75 0 M69.75 0 C86.92 -0.4, 91.4 6.75, 93 23.25 M69.75 0 C85.25 -0.6, 93.89 9.26, 93 23.25 M93 23.25 C91.55 44, 90.37 62.51, 93 96.75 M93 23.25 C93.7 42.39, 92.92 62.42, 93 96.75 M93 96.75 C93.13 112.71, 86.78 119.27, 69.75 120 M93 96.75 C92.77 110.53, 87.23 118.39, 69.75 120 M69.75 120 C57.96 120.04, 46.81 121.47, 23.25 120 M69.75 120 C52.81 121.25, 35.31 119.82, 23.25 120 M23.25 120 C7.89 120.27, 0.18 112.04, 0 96.75 M23.25 120 C7.28 119.41, 2.14 111.88, 0 96.75 M0 96.75 C0.13 72.34, 0.01 49.7, 0 23.25 M0 96.75 C1.01 78.48, -0.24 60.91, 0 23.25 M0 23.25 C1.7 9.04, 7.26 1.31, 23.25 0 M0 23.25 C0.49 6.45, 8.81 2.25, 23.25 0" stroke="#1e1e1e" stroke-width="2" fill="none"></path></g><g transform="translate(803.465785286691 370.7634491371654) rotate(0 19.639991760253906 12.5)"><text x="19.639991760253906" y="17.52" font-family="Virgil, Segoe UI Emoji" font-size="20px" fill="#1e1e1e" text-anchor="middle" style="white-space: pre;" direction="ltr" dominant-baseline="alphabetic">LLM</text></g><g stroke-linecap="round" transform="translate(573.9483613693894 312.691560318782) rotate(0 44.67425751641838 12.02277254925525)"><path d="M6.01 0 C31.35 1.69, 57.53 -1.19, 83.34 0 C85.16 -0.91, 87.39 -0.51, 89.35 6.01 C90.01 10.82, 91.06 12.95, 89.35 18.03 C86.57 23.3, 90.86 23.16, 83.34 24.05 C52.97 22.52, 25.09 24.05, 6.01 24.05 C-0.4 24.92, -2.19 23.92, 0 18.03 C-0.85 13.14, -0.73 7.93, 0 6.01 C2.85 3.24, 2.41 0.33, 6.01 0" stroke="none" stroke-width="0" fill="#e9ecef"></path><path d="M6.01 0 C22.13 0.49, 41.59 -0.17, 83.34 0 M6.01 0 C26 1.29, 46.06 0.01, 83.34 0 M83.34 0 C89.15 1.79, 87.45 2.83, 89.35 6.01 M83.34 0 C88.89 2.28, 89.88 1.03, 89.35 6.01 M89.35 6.01 C89.71 9.07, 90.18 12.99, 89.35 18.03 M89.35 6.01 C89.03 8.24, 89.55 11.7, 89.35 18.03 M89.35 18.03 C89.57 20.63, 86.07 23.57, 83.34 24.05 M89.35 18.03 C91.34 21.04, 88.65 25.16, 83.34 24.05 M83.34 24.05 C55.41 23.91, 24.74 23.28, 6.01 24.05 M83.34 24.05 C61.29 24.45, 38.45 25.16, 6.01 24.05 M6.01 24.05 C0.77 23.47, -0.03 21.35, 0 18.03 M6.01 24.05 C3.4 23.25, 1.88 22.47, 0 18.03 M0 18.03 C0.85 13.43, 0.3 7.97, 0 6.01 M0 18.03 C0.51 14.89, -0.17 12.49, 0 6.01 M0 6.01 C1.6 1.18, 3.66 -0.98, 6.01 0 M0 6.01 C-2.26 0.34, 3.54 -0.15, 6.01 0" stroke="#1e1e1e" stroke-width="2" fill="none"></path></g><g stroke-linecap="round" transform="translate(573.9483613693897 277.0479982292425) rotate(0 44.67425751641838 12.02277254925525)"><path d="M6.01 0 C33.48 1.18, 56.53 1.17, 83.34 0 C88.68 -3.34, 87 1.12, 89.35 6.01 C89.05 9.99, 89.26 10.37, 89.35 18.03 C86.39 21.55, 89.08 23.31, 83.34 24.05 C61.1 23.84, 37.86 24.78, 6.01 24.05 C3.15 25.46, -2.87 25.08, 0 18.03 C1.28 14.9, 0.82 13.3, 0 6.01 C-1.07 2.51, 0.06 -0.25, 6.01 0" stroke="none" stroke-width="0" fill="#e9ecef"></path><path d="M6.01 0 C32.61 0.71, 55.48 -0.54, 83.34 0 M6.01 0 C26.46 0.64, 45.41 1.15, 83.34 0 M83.34 0 C88.79 -1.28, 89.96 1.15, 89.35 6.01 M83.34 0 C89.44 0.21, 87.8 2.53, 89.35 6.01 M89.35 6.01 C89.67 9.37, 90.51 13.1, 89.35 18.03 M89.35 6.01 C89.31 10.68, 89.54 14.85, 89.35 18.03 M89.35 18.03 C90.28 21.34, 87.56 24.81, 83.34 24.05 M89.35 18.03 C90.46 22.77, 86.76 23.4, 83.34 24.05 M83.34 24.05 C59.46 25.56, 35.1 22.51, 6.01 24.05 M83.34 24.05 C63.02 24.92, 43.53 23.78, 6.01 24.05 M6.01 24.05 C1.7 24.01, -1.47 20.96, 0 18.03 M6.01 24.05 C3.75 26.02, -0.09 20.35, 0 18.03 M0 18.03 C-0.89 13.47, -0.56 8.96, 0 6.01 M0 18.03 C-0.34 13.96, 0.47 10.6, 0 6.01 M0 6.01 C-0.79 2.38, 0.47 -0.51, 6.01 0 M0 6.01 C-1.69 2.9, 4.2 -0.24, 6.01 0" stroke="#1e1e1e" stroke-width="2" fill="none"></path></g><g stroke-linecap="round" transform="translate(573.9483613693897 241.40443613970302) rotate(0 44.67425751641838 12.02277254925525)"><path d="M6.01 0 C35.02 -1.57, 61.81 -2.45, 83.34 0 C87.1 -0.21, 89.45 2.23, 89.35 6.01 C90.61 7.17, 88.98 10.02, 89.35 18.03 C91.84 22.62, 87.34 26.38, 83.34 24.05 C62.46 26.42, 39.16 25.96, 6.01 24.05 C0.87 27.1, 2 20.85, 0 18.03 C0.66 12.06, 0.9 10.02, 0 6.01 C-1.42 2.43, -1.19 1.26, 6.01 0" stroke="none" stroke-width="0" fill="#e9ecef"></path><path d="M6.01 0 C33.57 0.88, 60.25 -0.59, 83.34 0 M6.01 0 C27.51 -0.17, 48.61 -0.71, 83.34 0 M83.34 0 C85.44 -0.84, 87.6 3.72, 89.35 6.01 M83.34 0 C86.49 0.48, 89.54 -0.13, 89.35 6.01 M89.35 6.01 C88.7 10.35, 90.38 12.82, 89.35 18.03 M89.35 6.01 C89.98 8.31, 89.49 11.2, 89.35 18.03 M89.35 18.03 C89.66 21.86, 86.84 22.32, 83.34 24.05 M89.35 18.03 C87.95 19.84, 89.01 22.37, 83.34 24.05 M83.34 24.05 C62.67 21.98, 43.8 25.36, 6.01 24.05 M83.34 24.05 C59.94 24.87, 38.48 24.27, 6.01 24.05 M6.01 24.05 C1.88 24.79, -1.86 20.74, 0 18.03 M6.01 24.05 C1.44 22.16, -0.31 21.09, 0 18.03 M0 18.03 C-0.57 13.59, -0.24 11.7, 0 6.01 M0 18.03 C-0.05 14.79, -0.01 11.37, 0 6.01 M0 6.01 C0.47 2.64, 2.79 -1.6, 6.01 0 M0 6.01 C1.94 0.42, 1.63 0.71, 6.01 0" stroke="#1e1e1e" stroke-width="2" fill="none"></path></g><g stroke-linecap="round"><g transform="translate(889.6268852672872 523.1269924119549) rotate(0 29.61911863791272 18.474785494997604)"><path d="M-0.89 0.64 C9.11 7.02, 49.86 31.99, 59.97 37.97 M0.84 -0.07 C10.76 6.03, 49.66 30.11, 59.41 36.38" stroke="#e03131" stroke-width="4" fill="none"></path></g></g><mask></mask><g stroke-linecap="round"><g transform="translate(889.8895920215189 561.1217104935392) rotate(0 29.195102298479924 -19.72797046022248)"><path d="M-0.69 0.65 C9.1 -5.98, 49.29 -33.94, 59.04 -40.54 M1.15 -0.06 C10.8 -6.51, 49.17 -32.74, 58.43 -39.57" stroke="#e03131" stroke-width="4" fill="none"></path></g></g><mask></mask></svg>